<svg width="90" height="48" viewBox="0 0 90 48" fill="none" xmlns="http://www.w3.org/2000/svg" aria-hidden="true">
  <path d="M14.8488 35.2574L2.65784 27.3462C2.36603 27.1558 2.15529 26.8558 2.07018 26.5073L0.0437504 18.3449C-0.118364 17.6964 0.181547 17.0155 0.752999 16.7197L9.58416 12.1643C9.7179 12.0954 9.83949 12.0021 9.94486 11.8927L18.9462 2.40094C19.2624 2.06861 19.7163 1.92271 20.154 2.01187L39.6482 6.05256C39.8711 6.09714 40.1062 6.08499 40.325 6.00799L57.4524 0.070551C57.6996 -0.0145588 57.963 -0.0226636 58.2103 0.0462349L75.4268 4.83671C75.8077 4.94208 76.1239 5.21767 76.29 5.59459L79.5161 12.8208C79.6296 13.0762 79.816 13.2909 80.047 13.4328L88.5458 18.6772C89.097 19.0176 89.3402 19.7269 89.1254 20.3632L83.6338 36.4733C83.569 36.6597 83.4717 36.8299 83.3379 36.9758L74.4946 46.7148C74.1866 47.0553 73.7327 47.2133 73.295 47.1323L46.3354 42.127C46.1247 42.0865 45.9099 42.1027 45.7072 42.1675L32.5071 46.4879C32.268 46.5649 32.0126 46.573 31.7695 46.5041L17.317 42.4917C16.8185 42.3539 16.4416 41.9243 16.3484 41.3853L15.4608 36.2058C15.3919 35.8126 15.173 35.4722 14.8488 35.2615V35.2574Z" fill="#3C3C3B"/>
  <path d="M18.3196 34.382L29.7891 30.1752C30.7578 29.8185 31.009 28.4932 30.235 27.784L23.5883 21.6642C22.9277 21.0562 21.8982 21.2751 21.5092 22.11L16.6863 32.4407C16.1594 33.5714 17.1888 34.7995 18.3196 34.3861V34.382Z" fill="#1D1D1B"/>
  <path d="M44.6507 37.1501L42.1541 28.1487C41.9879 27.5529 42.2149 26.9085 42.7134 26.5681L48.3509 22.7098C49.3722 22.0127 50.6732 22.9935 50.3692 24.2336L47.2283 37.0933C46.8878 38.4794 45.0316 38.5199 44.6507 37.1501V37.1501Z" fill="#1D1D1B"/>
  <path d="M83.0115 35.8369L76.2392 23.8891C75.8906 23.2772 75.1611 23.038 74.5411 23.3339L67.2135 26.8558C66.5529 27.1719 66.2489 27.9866 66.5326 28.6918L73.2077 45.3003C73.5805 46.2284 74.7356 46.4473 75.4003 45.7178L82.8291 37.5391C83.2466 37.0812 83.3236 36.3841 83.0156 35.841L83.0115 35.8369Z" fill="#1D1D1B"/>
  <path opacity="0.6" d="M41.6873 8.3342L51.017 20.4806C51.1547 20.6589 51.329 20.7967 51.5276 20.8859L65.4856 27.18C65.8301 27.334 66.2233 27.3299 66.5637 27.1678L75.1638 23.0339C75.4638 22.892 75.6988 22.6367 75.8326 22.3206L78.8479 15.1957C79.241 14.2635 78.5966 13.2179 77.632 13.2179L62.3771 13.2625C62.1015 13.2625 61.834 13.1733 61.6111 13.0112L52.0829 5.99571C51.8478 5.82144 51.5641 5.73632 51.2763 5.74443L42.6802 6.03623C41.5738 6.07271 40.9821 7.43042 41.6751 8.3342H41.6873Z" fill="#1D1D1B"/>
  <path opacity="0.7" d="M3.85376 24.3593L8.01604 17.5505C8.32811 17.0358 8.91983 16.7926 9.47912 16.9466L14.071 18.203C15.5422 18.6083 16.4176 16.513 15.1328 15.6497L10.4153 12.4844C10.0222 12.221 9.5318 12.1926 9.11031 12.4074L0.753332 16.7197C0.177827 17.0155 -0.118031 17.6964 0.0440828 18.3449L1.43826 23.958C1.73412 25.1415 3.22152 25.3846 3.85376 24.3552V24.3593Z" fill="#1D1D1B"/>
  <path opacity="0.6" d="M40.3374 30.2197L33.6421 43.6022C33.0868 44.7127 34.0757 45.9691 35.2146 45.6002L44.759 42.4795C45.4602 42.2526 45.8574 41.4744 45.6507 40.7328L42.8056 30.475C42.4692 29.2632 40.9048 29.1051 40.3414 30.2237L40.3374 30.2197Z" fill="#1D1D1B"/>
  <path d="M21.0484 19.6255L21.8144 20.1402C22.1143 20.3428 22.479 20.4077 22.8235 20.3266L24.546 19.9173C26.1428 19.5363 25.8267 17.0438 24.1893 17.137L22.8033 17.2181C22.6168 17.2303 22.4263 17.1978 22.2521 17.1249C20.7485 16.517 19.6907 18.7176 21.0443 19.6295L21.0484 19.6255Z" fill="#1D1D1B"/>
</svg>
