<svg width="255" height="87" viewBox="0 0 255 87" fill="none" xmlns="http://www.w3.org/2000/svg" aria-hidden="true">
  <path d="M63.067 3.90302C63.067 3.90302 23.7107 7.83047 23.7107 42.634C23.7107 77.4375 71.7401 80.7746 71.7401 80.7746C88.1863 82.0721 101.167 81.0961 101.167 81.0961C101.167 81.0961 212.351 85.7365 226.126 82.9955C239.901 80.2545 242.432 75.4913 245.945 70.7222C245.945 70.7222 253.303 60.0211 253.361 42.3943C253.42 24.7676 246.12 15.8841 246.12 15.8841C242.976 11.4598 240.141 6.31092 226.383 3.48807C212.626 0.65937 79.6242 2.6757 63.067 3.89718V3.90302Z" fill="#59A2FF"/>
  <g opacity="0.1">
    <path d="M220.615 73.9512C216.407 68.0951 214.706 61.2396 213.339 54.3549C211.568 44.2382 211.533 33.4143 214.765 23.3911C215.63 20.7612 216.74 18.1545 218.131 15.7467C219.879 12.7602 221.381 10.4516 224.794 8.17813C232.672 3.24545 240.889 8.51711 245.121 15.5187C247.546 19.0254 246.289 23.9931 242.45 25.8692C238.961 27.6809 234.49 26.0211 232.964 22.6547C232.795 22.2632 232.578 21.8541 232.362 21.4859C231.953 20.7728 231.38 20.0014 230.884 19.5105C230.714 19.341 230.644 19.2767 230.72 19.2591C230.79 19.2416 231.03 19.2299 231.17 19.1598C231.322 19.0897 231.322 19.0195 231.17 19.0604C230.089 19.4053 228.411 21.6028 227.646 22.8301C225.185 26.6757 223.712 30.8837 222.748 35.4248C221.03 43.9869 221.24 53.4665 223.245 62.0987C223.894 64.8222 224.817 67.8146 226.226 70.0763C228.394 73.7875 223.344 77.2942 220.615 73.9453V73.9512Z" fill="white"/>
  </g>
  <path d="M15.5637 29.9409C13.6175 29.9409 12.0279 35.4347 12.0162 42.2142C12.0045 48.9937 13.5708 54.4991 15.5228 54.4991" stroke="#DADADA" stroke-width="2.55985" stroke-linecap="round" stroke-linejoin="round"/>
  <path opacity="0.6" d="M15.5637 29.9409C13.6175 29.9409 12.0279 35.4347 12.0162 42.2142C12.0045 48.9937 13.5708 54.4991 15.5228 54.4991" stroke="white" stroke-width="1.27993" stroke-linecap="round" stroke-linejoin="round"/>
  <path d="M23.962 54.1862C24.6224 55.1739 25.3646 55.7408 26.1653 55.7408C26.2413 55.7408 26.3874 56.7285 26.3874 56.7285C30.572 64.2445 38.9471 74.291 52.8568 77.4762C76.4565 82.8882 212.357 85.3019 226.132 82.5609C239.907 79.8198 242.438 75.0566 245.95 70.2876C245.95 70.2876 253.309 59.5865 253.367 41.9597C253.425 24.3329 246.126 15.4494 246.126 15.4494C242.981 11.0252 240.147 5.87628 226.389 3.05342C212.631 0.224725 76.7488 1.66245 53.0847 6.78216C38.7133 9.89139 30.7181 19.8853 26.4868 27.372C26.4868 27.372 26.3348 28.389 26.2588 28.389C25.4231 28.389 24.6399 28.9968 23.9503 30.0663L16.9195 29.9261C16.9195 29.9261 18.702 33.1171 18.965 42.0357C19.2338 50.9543 16.7383 54.2856 16.7383 54.2856L23.962 54.1745V54.1862Z" stroke="#515151" stroke-width="3.2495" stroke-linecap="round" stroke-linejoin="round"/>
  <path d="M15.1079 55.6562C17.2762 55.6621 19.0529 49.5488 19.0763 41.9978C19.0996 34.4469 17.3639 28.3219 15.1956 28.3161" stroke="black" stroke-width="1.27993" stroke-linecap="round" stroke-linejoin="round"/>
  <path opacity="0.15" d="M19.719 54.97C22.4133 52.866 23.5471 46.5599 23.8568 42.0071C24.2659 36.0107 22.2847 30.8208 20.847 29.5234" fill="#DADADA"/>
  <path d="M19.719 54.97C22.4133 52.866 23.5471 46.5599 23.8568 42.0071C24.2659 36.0107 22.2847 30.8208 20.847 29.5234" stroke="#DADADA" stroke-width="2.55985" stroke-linecap="round" stroke-linejoin="round"/>
  <path opacity="0.6" d="M19.719 54.97C22.4133 52.866 23.5471 46.5599 23.8568 42.0071C24.2659 36.0107 22.2847 30.8208 20.847 29.5234" stroke="white" stroke-width="1.27993" stroke-linecap="round" stroke-linejoin="round"/>
  <path opacity="0.15" d="M23.8394 54.97C25.7446 53.4154 27.6207 47.7346 27.9597 42.0246C28.3103 36.0224 26.9077 30.8267 25.4699 29.5234" fill="#DADADA"/>
  <path d="M23.8394 54.97C25.7446 53.4154 27.6207 47.7346 27.9597 42.0246C28.3103 36.0224 26.9077 30.8267 25.4699 29.5234" stroke="#DADADA" stroke-width="2.55985" stroke-linecap="round" stroke-linejoin="round"/>
  <path opacity="0.6" d="M23.8394 54.97C25.7446 53.4154 27.6207 47.7346 27.9597 42.0246C28.3103 36.0224 26.9077 30.8267 25.4699 29.5234" stroke="white" stroke-width="1.27993" stroke-linecap="round" stroke-linejoin="round"/>
  <path opacity="0.1" d="M225.63 67.1191C207.728 69.9186 196.729 71.4147 181.218 71.3505C164.386 71.2803 67.4154 74.4071 44.3767 58.4168C44.3767 58.4168 50.7354 44.0921 46.7379 34.4605" stroke="white" stroke-width="30.8819" stroke-linecap="round" stroke-linejoin="round"/>
  <path opacity="0.2" d="M225.63 67.1191C207.728 69.9186 196.729 71.4147 181.218 71.3505C164.386 71.2803 67.4154 74.4071 44.3767 58.4168C44.3767 58.4168 50.7354 44.0921 46.7379 34.4605" stroke="white" stroke-width="8.94196" stroke-linecap="round" stroke-linejoin="round"/>
  <path opacity="0.4" d="M54.3471 12.6103C66.6847 28.8695 68.0932 51.914 58.8824 70.0609C54.1659 78.5529 41.7699 72.311 45.8084 63.4567C50.0982 56.8175 52.6522 48.7113 52.8276 40.6869C53.0672 32.6216 50.9223 24.6206 46.7494 17.6482C43.9791 12.5986 50.7703 8.11014 54.3471 12.6103Z" fill="white"/>
  <path opacity="0.2" d="M233.847 68.7263C240.089 58.3992 241.509 45.5941 237.985 34.1332C236.857 30.3811 235.238 26.8043 233.227 23.6775C231.036 20.2761 232.023 15.7408 235.425 13.555C238.826 11.3692 243.361 12.351 245.547 15.7525C248.195 20.5975 249.849 25.8458 250.877 31.0649C252.777 40.9828 252.064 51.4034 248.51 60.8363C246.757 65.5235 244.32 69.9185 241.392 73.8694C237.768 78.4339 230.93 73.7642 233.853 68.7321L233.847 68.7263Z" fill="#1D1D1B"/>
  <path opacity="0.4" d="M38.9179 23.023C46.843 33.2449 47.8657 47.8267 42.1382 59.3928C40.7765 62.2683 37.3107 63.4722 34.4587 62.0637C31.3787 60.5734 30.3208 56.5875 32.2495 53.7647C34.7509 50.0418 36.212 45.3253 36.4048 40.7608C36.6328 35.9392 35.4288 31.1409 32.9976 26.9271C30.9053 23.0464 36.1886 19.5807 38.9179 23.0289V23.023Z" fill="white"/>
  <path d="M22.4601 42.1713C22.4601 33.2949 20.0162 26.0991 17.0014 26.0991C13.9867 26.0991 11.5427 33.2949 11.5427 42.1713C11.5427 51.0477 13.9867 58.2434 17.0014 58.2434C20.0162 58.2434 22.4601 51.0477 22.4601 42.1713Z" fill="#AD0404"/>
  <path d="M5.36523 26.0487L5.36523 58.1989H17.2878V26.0487H5.36523Z" fill="#AD0404"/>
  <path d="M10.9174 42.1713C10.9174 33.2949 8.47343 26.0991 5.45868 26.0991C2.44394 26.0991 0 33.2949 0 42.1713C0 51.0477 2.44394 58.2434 5.45868 58.2434C8.47343 58.2434 10.9174 51.0477 10.9174 42.1713Z" fill="#F03B50"/>
</svg>
