<svg width="122" height="100" viewBox="0 0 122 100" fill="none" xmlns="http://www.w3.org/2000/svg" aria-hidden="true">
  <path d="M61 1.5C94.1537 1.5 120.5 23.4793 120.5 50C120.5 76.5207 94.1537 98.5 61 98.5C27.8463 98.5 1.5 76.5207 1.5 50C1.5 23.4793 27.8463 1.5 61 1.5Z" fill="#B0D280" stroke="#546461" stroke-width="3"/>
  <path d="M2.64673 52.7501C3.649 52.2056 6.21124 50.9825 6.97904 50.3813C7.17665 50.2266 7.31064 49.9678 7.55388 49.856C8.52452 49.4102 9.55545 50.1951 10.6168 50.3518C11.9037 50.5416 13.6802 48.9345 16.299 48.5786C19.9473 48.0827 22.9305 48.8313 24.1913 48.2987C25.6777 47.6707 26.5161 47.0611 26.8997 47.2889C27.6145 47.7134 28.477 48.6138 29.7497 49.277C30.5299 49.6836 31.4433 49.7544 33.2064 49.8271C36.9456 49.9812 39.666 49.8998 40.9944 50.2405C46.0283 51.5319 47.5587 51.8389 49.3672 52.5908C50.4237 53.0301 51.7006 53.5666 52.9839 53.5947C54.4056 53.626 55.9672 52.7433 58.7942 51.6239C62.7618 50.0529 66.9316 50.7643 67.9658 50.2757C69.3785 49.6082 70.6681 48.7289 72.3164 48.3322C73.5089 48.0452 74.9688 48.8329 76.4132 48.4675C78.6091 47.9121 79.84 46.4406 80.3235 46.4451C81.1735 46.453 82.6058 47.5893 84.0639 48.4927C84.6634 48.8641 85.7193 49.4247 88.2861 50.3307C92.8294 51.9344 96.1741 52.3353 96.8258 52.3655C98.7945 52.4569 102.026 52.0436 103.534 51.0157C104.7 50.2207 104.908 49.5046 105.281 49.3899C105.644 49.2783 106.071 49.6274 107.789 49.8067C112.011 50.2477 115.276 50.2042 116.144 50.3227C117.831 50.4138 118.514 50.6609 118.835 50.9613C118.992 51.1178 119.136 51.2823 119.658 51.7012" stroke="#546461" stroke-width="2" stroke-linecap="round"/>
  <path d="M1.95242 51.6228C1.89009 51.1485 3.7955 47.6169 5.54002 45.8529C6.93922 44.438 10.0772 44.418 11.9476 43.2203C13.365 42.3126 14.2663 40.8363 14.8906 40.0238C15.5106 39.2168 16.8342 39.3354 18.009 39.5321C18.6656 39.642 19.2936 39.4406 20.8657 38.2894C24.6405 35.5254 27.2184 33.2503 27.7391 32.9413C28.6621 32.3936 29.5803 31.8295 31.0053 31.8671C33.2542 31.9263 34.3592 33.3733 35.1176 33.276C39.0026 32.7777 42.9659 28.5919 43.5278 28.5604C44.5665 28.5021 45.5499 29.4913 46.6535 29.8296C48.5207 30.402 48.6666 27.0518 49.2841 26.2716C49.5965 25.877 50.6772 25.7618 52.8403 25.8629C56.0741 26.0141 59.8504 26.3746 62.7849 26.3164C64.8144 26.2761 66.1046 24.4273 67.1315 24.0896C68.9769 23.4828 70.8301 27.3276 72.1364 28.5585C72.9655 29.3398 74.4535 27.2308 75.5967 27.0248C76.6743 26.8306 78.2833 28.0344 80.0594 29.109C81.7444 30.1285 82.6252 30.5574 86.1063 31.6297C89.4669 32.665 91.6753 33.8143 92.3494 33.9078C92.8265 33.974 93.2418 33.622 93.7061 33.435C95.1853 32.8394 98.3396 34.8639 99.7827 35.3404C101.171 35.7987 102.179 36.4375 106.025 37.3473C108.186 37.8585 109.28 38.3042 110.41 38.4298C112.423 38.6535 113.73 40.4051 114.219 41.2983C114.691 42.1607 115.329 42.8572 116.15 43.6775C116.962 44.4899 117.388 45.4726 117.668 46.5743C118.048 47.5595 118.502 48.4898 118.714 49.4453C118.741 49.7818 118.741 50.2344 118.741 50.7006" stroke="#546461" stroke-width="2" stroke-linecap="round"/>
  <path d="M2.85742 52.8598C4.22854 56.4052 6.20278 58.2787 7.65438 59.1281C8.69571 59.7374 9.79314 59.5078 11.5738 60.8572C12.8692 61.8389 15.0807 60.3352 15.8827 60.7287C19.1479 62.3307 18.9281 65.0683 20.1018 66.242C22.1207 68.261 26.9675 68.1806 28.39 67.622C30.7226 66.706 32.0221 66.7543 35.502 67.5051C38.1376 68.0738 42.4401 69.4425 44.8105 70.118C47.9831 71.0221 50.5255 70.1059 53.3024 69.3491C54.2008 69.1042 57.1418 69.652 61.0123 69.7843C63.3291 69.8635 66.3501 67.3264 68.7187 66.4454C70.1575 65.9102 72.7603 67.7368 75.2943 68.405C78.0149 69.1223 80.9811 69.8523 83.1374 70.1026C84.5091 70.2618 85.5004 70.1291 86.5231 69.9443C87.6626 69.7385 90.5038 68.2056 94.8554 65.6518C98.955 63.2459 100.876 61.3433 101.469 61.1333C102.873 60.636 104.469 61.3063 109.142 59.1069C115.136 56.2857 115.57 54.7721 117.687 53.616C118.18 53.3467 118.45 53.221 118.6 53.0353C118.751 52.8495 118.771 52.6027 118.844 52.3933C118.916 52.1839 119.039 52.0193 119.478 51.7251" stroke="#546461" stroke-width="2" stroke-linecap="round"/>
  <path d="M2.41626 55.2368C2.77741 56.4798 4.13555 60.1489 5.61135 63.0357C7.98181 67.6725 9.23682 68.614 10.4921 69.7909C11.3463 70.5918 12.6878 71.1702 15.0111 73.3374C16.7975 75.0038 18.222 74.7071 19.5344 75.3635C22.7896 76.9915 24.1328 78.5664 28.2221 79.3012C31.7524 79.9355 33.9308 81.2349 34.5509 81.5438C36.4181 82.4741 38.9511 82.5808 40.3188 82.3619C42.1637 82.0666 45.9356 82.9231 49.7746 84.041C54.1619 85.3185 56.7812 86.2624 57.3703 86.2218C58.6764 86.132 61.8493 86.6367 67.0512 86.9493C70.5334 87.1585 72.6313 85.8253 76.5482 86.0211C78.7688 86.132 81.3395 83.9152 86.2331 83.9938C88.3964 84.0286 90.8736 82.2957 94.3489 79.3326C96.5465 77.4589 98.3152 77.6632 101.584 76.178C105.27 74.5032 106.257 72.3041 107.256 71.6137C108.051 71.064 110.615 69.3315 112.264 67.5196C113.024 66.6846 115.082 64.0944 117.635 59.8057C118.734 57.9587 118.767 56.3423 119.427 55.2912C119.593 55.0586 119.736 54.8651 119.881 54.6625C120.027 54.46 120.171 54.2543 120.631 53.7307" stroke="#546461" stroke-width="2" stroke-linecap="round"/>
  <path d="M119.908 48.6187C119.632 48.5455 118.726 47.992 118.049 47.1625C117.157 46.0715 116.602 44.6625 116.074 41.4083C115.852 40.0426 115.7 38.5759 115.56 37.0932C115.425 35.6629 112.554 35.0617 111.116 34.7196C109.199 34.2639 107.893 34.4175 106.958 33.9197C105.902 33.3576 105.133 32.1007 104.198 31.097C103.514 30.3626 102.291 30.1761 100.412 30.0452C97.2699 29.8263 95.481 28.681 94.4704 27.9763C91.7541 26.0821 90.4497 23.8552 89.5951 23.2459C88.5218 22.4808 86.4792 22.1006 85.434 21.5593C84.5313 21.0917 83.8156 20.7388 82.811 19.7656C81.7892 18.7757 80.6998 18.0983 79.7533 17.7308C78.0105 17.0542 76.6698 17.4196 75.3905 16.9724C71.892 15.7493 70.4507 15.866 66.5139 15.24C63.466 14.7553 60.7651 15.3237 59.2078 15.7522C56.3831 16.5294 51.837 16.5382 50.562 17.1651C49.6532 17.612 49.1526 18.4335 48.6918 18.513C47.5625 18.7078 46.1721 18.095 43.8604 19.1816C41.0461 20.5045 38.2878 21.0356 36.8215 21.1855C35.8131 21.2885 34.9799 21.171 34.0193 21.2714C32.9659 21.3816 32.1104 21.4207 30.9326 21.8271C30.4606 21.9899 29.7124 22.0188 28.8466 22.1211C27.8122 22.2433 27.4219 23.4821 26.6241 23.7127C26.184 23.8398 24.9455 24.3742 22.3754 26.2959C18.4129 29.259 16.125 31.7272 15.6198 32.2313C14.6348 33.2141 13.6732 33.4344 13.1973 34.1143C12.4666 35.1584 12.1079 36.4528 11.7246 37.2554C11.102 38.5589 7.7098 39.7397 6.2085 41.2455C5.47362 41.9826 4.72941 42.6696 3.86651 43.634C2.95634 44.6513 2.43341 46.3295 1.97571 47.363C1.87201 47.6315 1.79761 47.8734 1.75928 48.2677C1.72095 48.662 1.72095 49.2014 1.72095 49.7572" stroke="#546461" stroke-width="2" stroke-linecap="round"/>
  <path d="M8.01392 41.6298C10.4638 31.6142 17.2266 22.6328 27.0923 16.2928C36.9579 9.95287 49.2824 6.66815 61.8602 7.02651" stroke="white" stroke-width="3" stroke-linecap="round"/>
</svg>
