<svg width="535" height="533" viewBox="0 0 535 533" fill="none" xmlns="http://www.w3.org/2000/svg" aria-hidden="true">
<g transform="translate(40 0)">
<path d="M378.467 451.731C378.467 479.235 400.765 501.532 428.27 501.532C455.774 501.532 478.071 479.235 478.071 451.731C478.071 424.226 455.774 401.928 428.27 401.928C400.765 401.928 378.467 424.226 378.467 451.731Z" fill="#206CE8"/>
<path d="M389.879 420.272C392.305 419.914 394.837 419.551 394.743 417.364C394.696 416.257 394.897 415.544 395.239 414.672C395.575 413.82 391.538 417.968 389.879 420.272Z" fill="#57D976"/>
<path d="M419.589 426.299C419.589 426.299 418.206 428.864 419.934 429.28C421.663 429.694 424.646 428.524 424.559 429.43C424.473 430.336 421.372 429.933 421.101 430.524C420.831 431.116 422.138 432.336 421.36 432.6C420.582 432.864 420.539 431.582 420.064 432.147C419.589 432.713 419.502 433.695 420.41 434.109C421.316 434.524 421.145 434.713 420.237 434.713C419.33 434.713 417.816 434.336 416.909 434.676C416 435.015 415.462 434.978 414.186 435.015C412.909 435.052 412.519 433.237 412.846 432.638C413.173 432.039 411.848 432.418 411.895 433.43C411.942 434.443 413.161 435.775 412.457 435.882C411.753 435.991 409.734 435.769 409.172 436.6C408.611 437.43 408.092 438.788 407.27 438.863C406.449 438.94 405.952 439.576 405.196 439.656C404.441 439.737 403.098 439.91 403.985 440.298C404.873 440.685 406.275 441.279 406.147 442.222C406.016 443.166 405.974 443.845 404.245 443.732C402.515 443.62 400.917 443.505 400.787 444.071C400.657 444.638 401.521 445.182 401.003 446.298C400.484 447.414 400.208 448.762 401.046 448.675C401.884 448.589 402.689 448.638 402.689 449.242C402.689 449.845 403.659 448.653 404.245 448.75C404.83 448.849 406.351 448.832 406.493 448.222C406.635 447.612 406.579 447.053 406.837 446.562C407.097 446.072 407.832 445.619 408.351 445.43C408.87 445.242 408.87 443.581 410.339 443.77C411.809 443.959 410.857 444.26 411.722 443.62C412.586 442.978 413.465 443.403 413.408 443.883C413.351 444.362 415.77 445.777 416.303 445.829C416.835 445.881 417.517 446.371 417.488 446.811C417.458 447.251 417.235 448.245 417.458 448.182C417.681 448.117 418.406 447.302 418.257 446.914C418.109 446.526 417.932 446.036 418.464 446.191C418.997 446.346 419.175 446.526 418.732 445.932C418.287 445.338 416.925 445.104 416.511 444.795C416.095 444.484 414.615 442.985 414.764 442.597C414.912 442.209 415.859 442.106 416.243 442.468C416.629 442.829 417.517 444.096 418.524 444.407C419.531 444.717 420.064 446.009 419.975 446.579C419.886 447.147 421.441 447.576 421.441 448.152C421.441 448.73 422.424 449.11 422.463 448.703C422.502 448.297 423.324 447.872 423.063 447.497C422.804 447.121 421.441 446.474 422.133 445.949C422.823 445.424 424.629 445.246 424.656 446.132C424.685 447.02 425.071 448.378 425.618 448.599C426.166 448.82 427.24 449.244 428.066 449.096C428.892 448.947 428.989 449.521 429.693 449.456C430.397 449.393 431.502 448.954 431.49 450.092C431.477 451.231 430.64 452.912 429.086 452.869C427.532 452.827 424.764 452.763 423.5 452.276C422.238 451.789 421.558 451.471 420.272 452.064C418.984 452.658 418.061 452.742 416.289 452.042C414.517 451.343 413.278 450.983 414.007 450.199C414.735 449.414 413.545 448.206 411.796 448.862C410.049 449.521 407.862 448.942 406.823 449.356C405.783 449.768 404.838 450.154 403.924 449.988C403.011 449.823 402.861 449.903 402.68 450.182C402.5 450.462 401.598 451.74 400.718 451.966C399.836 452.193 400.352 453.51 399.506 454.249C398.661 454.986 395.294 458.094 395.294 459.517C395.294 460.94 395.497 462.542 394.887 463.253C394.275 463.964 395.64 465.641 396.515 466.277C397.392 466.914 400.32 470.309 401.95 470.309C403.579 470.309 403.648 469.835 405.346 469.953C407.044 470.072 409.014 468.352 409.896 468.886C410.779 469.42 411.171 470.484 412.477 470.546C413.784 470.608 413.929 471.302 413.564 472.385C413.2 473.467 412.894 473.89 413.8 475C414.708 476.108 416.583 477.903 416.34 479.645C416.098 481.388 414.95 481.177 415.071 484.186C415.192 487.196 416.462 485.664 416.643 487.354C416.825 489.043 418.702 492.325 418.819 493.215C418.937 494.104 418.88 495.697 420.09 495.855C421.299 496.013 424.989 495.697 426.258 494.271C427.529 492.845 429.222 490.258 429.585 489.466C429.948 488.674 432.383 488.527 431.823 487.143C431.262 485.76 431.398 485.243 432.73 484.82C434.059 484.398 436.541 483.695 435.259 479.459C433.977 475.222 435.9 474.583 436.633 473.944C437.365 473.304 443.43 467.768 443.43 466.764C443.43 465.762 443.152 465.64 443.152 465.64L437.995 466.339C437.995 466.339 437.403 465.67 437.508 465.426C437.613 465.183 436.602 464.058 435.661 463.754C434.721 463.45 434.547 461.411 433.501 460.956C432.456 460.499 433.258 458.674 432.143 458.218C431.028 457.762 431.724 457.396 431.341 456.788C430.958 456.18 429.53 453.838 429.53 453.838C429.53 453.838 430.45 455.017 430.888 454.902C431.327 454.787 431.551 454.842 431.864 455.298C432.177 455.754 432.979 457.488 433.501 457.488C434.024 457.488 433.85 459.009 434.372 459.617C434.895 460.225 436.115 460.407 436.254 461.411C436.394 462.416 437.667 465.13 438.239 465.031C438.813 464.932 443.499 463.388 443.988 463.054C444.476 462.72 444.502 462.333 445.242 462.263C445.981 462.193 445.991 461.571 446.392 461.563C446.793 461.556 447.263 460.894 447.75 460.802C448.238 460.712 447.472 459.83 448.134 459.526C448.796 459.222 449.284 458.035 448.238 457.701C447.193 457.366 446.119 456.742 446.183 456.362C446.245 455.982 445.068 457.701 444.022 457.67C442.978 457.64 443.116 456.028 442.769 455.998C442.42 455.966 442.699 456.91 442.42 456.636C442.142 456.362 440.435 454.537 440.435 454.051C440.435 453.564 441.444 452.773 442.002 453.716C442.559 454.659 444.072 455.532 445.347 455.449C446.621 455.367 447.263 455.267 447.506 455.906C447.75 456.545 449.098 456.681 450.188 456.681C451.276 456.681 454.388 456.725 454.596 457.134C454.803 457.542 456.099 459.578 457.084 459.578C458.069 459.578 457.603 458.129 458.38 458.673C459.158 459.216 459.677 462.43 459.936 463.699C460.196 464.966 461.803 467.682 462.477 467.682C463.151 467.682 464.603 466.323 463.98 464.921C463.358 463.517 467.297 460.064 467.955 459.805C468.612 459.546 468.868 458.382 470.418 458.455C471.968 458.529 472.18 459.17 472.881 459.756C473.583 460.341 473.506 463.013 474.142 462.857C474.777 462.701 477.031 462.491 477.031 462.491C477.031 462.491 478.679 453.203 477.728 446.201C476.617 438.033 474.409 430.539 469.212 422.705C463.83 414.594 452.538 407.925 452.538 407.925C452.538 407.925 452.397 409.792 451.184 409.984C449.969 410.177 448.873 410.481 449.529 411.767C450.184 413.055 448.756 412.634 447.652 412.682C446.548 412.731 446.878 416.103 448.314 416.971C449.749 417.838 449.307 421.115 448.424 421.115C447.542 421.115 449.638 418.705 447.596 417.404C445.555 416.103 445.444 412.587 445.444 412.587L443.568 412.923C443.568 412.923 442.74 416.103 443.734 417.067C444.727 418.03 445.996 419.477 445.996 419.477C445.996 419.477 441.822 417.177 440.975 417.453C440.126 417.729 441.636 418.979 440.256 419.042C438.878 419.106 438.821 419.332 437.056 419.332C435.29 419.332 434.683 420.295 434.408 420.825C434.132 421.356 433.559 422.335 432.783 421.657C432.008 420.98 433.689 419.625 432.697 419.625C431.706 419.625 431.102 419.776 431.102 419.776C431.102 419.776 431.534 421.13 431.534 421.544C431.534 421.958 431.877 422.824 431.317 422.824C430.758 422.824 430.37 423.501 430.499 424.14C430.629 424.78 430.241 425.796 428.775 425.42C427.31 425.043 426.62 422.899 425.284 422.447C423.949 421.996 427.526 423.087 428.516 422.974C429.508 422.861 431.569 421.397 428.904 420.378C426.24 419.36 422.915 419.099 422.915 418.722C422.915 418.345 420.839 417.01 420.195 417.452C419.552 417.894 415.401 418.24 415.068 421.307C414.735 424.374 413.692 425.121 412.742 425.452C411.792 425.783 409.369 426.218 409.369 428.545C409.369 430.874 410.455 431.884 411.403 431.793C412.35 431.701 412.666 429.771 413.122 429.955C413.577 430.139 414.49 431.395 414.139 432.129C413.789 432.864 413.754 433.905 414.666 434.028C415.577 434.151 417.044 433.501 416.735 431.946C416.428 430.39 417.823 430.23 417.823 430.23C417.823 430.23 418.209 429.587 417.543 429.403C416.875 429.22 416.315 427.903 417.016 427.351C417.717 426.8 419.166 425.384 419.156 424.625C419.147 423.865 420.174 423.401 421.192 423.89C422.209 424.38 420.372 425.246 419.589 426.299Z" fill="#57D976"/>
<path d="M403.149 438.808C403.149 438.808 403.932 438.199 405.21 438.225C406.489 438.25 407.458 438.031 407.506 437.515C407.554 436.998 407.768 436.627 407.129 436.247C406.489 435.866 405.735 435.18 405.444 434.217C405.153 433.253 404.369 433.557 404.369 433.557C404.369 433.557 405.707 432.568 405.415 432.264C405.125 431.96 403.962 432.34 403.962 432.34C403.962 432.34 405.066 431.477 404.571 431.3C404.078 431.123 403.211 431.422 403.149 432.061C403.087 432.7 403.265 433.507 403.265 433.507C403.265 433.507 404.18 434.082 403.845 434.294C403.511 434.503 403.149 434.77 403.555 434.776C403.962 434.78 404.292 434.72 404.571 435.383C404.85 436.047 403.497 435.917 403.555 436.373C403.612 436.83 403.991 437.185 403.265 437.616C402.538 438.047 404.367 437.496 404.631 437.667C404.895 437.837 403.178 438.275 403.149 438.808Z" fill="#57D976"/>
<path d="M401.435 437.235C401.435 437.235 400.25 437.637 400.243 437.185C400.237 436.732 401.434 436.448 401.114 436.067C400.794 435.687 400.097 434.825 401.085 434.825C402.073 434.825 401.957 434.217 402.422 434.445C402.887 434.674 403.09 435.028 402.829 435.459C402.567 435.89 402.986 436.882 402.422 436.931C401.857 436.98 401.435 437.235 401.435 437.235Z" fill="#57D976"/>
<path d="M424.658 446.131C424.658 446.131 425.902 446.538 426.449 445.889C426.995 445.242 427.737 445.277 428.869 445.277C430 445.277 430.664 444.902 432.029 445.277C433.396 445.651 435.471 445.462 434.762 444.629C434.051 443.797 431.117 442.6 431.093 442.312C431.068 442.025 432.889 440.711 432.302 440.506C431.718 440.302 430.95 441.591 429.454 441.494C427.958 441.397 427.584 440.574 427.073 441.29C426.562 442.006 425.122 443.165 425.512 444.049C425.902 444.936 426.098 445.549 426.098 445.549L424.658 446.131Z" fill="#206CE8"/>
<path d="M440.723 442.223C440.723 442.223 440.034 442.72 440.963 443.322C441.894 443.925 442.222 443.977 442.222 444.866C442.222 445.757 443.512 446.281 443.512 447.327C443.512 448.374 443.932 449.605 442.163 448.767C440.394 447.929 439.554 446.856 440.274 446.071C440.993 445.285 439.404 444.501 439.404 444.501C439.404 444.501 437.349 442.953 437.935 442.249C438.52 441.545 439.61 440.432 440.424 440.496C441.237 440.558 441.742 440.233 441.803 440.574C441.862 440.914 442.942 441.726 440.723 442.223Z" fill="#206CE8"/>
<path d="M393.756 425.687C392.845 426.403 395.686 426.976 397.788 425.091C399.889 423.207 397.737 423.08 397.05 423.207C396.362 423.334 394.04 423.506 393.246 423.406C392.451 423.308 395.46 424.348 393.756 425.687Z" fill="#57D976"/>
<path d="M438.465 416.887C438.465 416.887 434.711 415.436 436.68 412.215C438.649 408.995 441.801 407.339 440.094 406.391C438.388 405.441 437.456 408.896 436.526 409.099C435.594 409.302 433.413 413.903 434.819 414.992C436.224 416.079 435.828 416.82 438.465 416.887Z" fill="#57D976"/>
<path d="M441.987 481.088C441.987 481.088 442.906 482.961 441.435 484.94C439.965 486.92 440.434 488.976 439.351 489.166C438.269 489.357 437.527 489.125 437.452 488.417C437.377 487.709 438.277 485.626 438.126 484.94C437.975 484.254 437.238 483.474 439.168 482.746C441.098 482.02 441.252 482.533 441.987 481.088Z" fill="#57D976"/>
<path d="M494.075 519.989H372.082L376.711 450.536C376.711 450.536 398.687 461.986 428.268 461.986C476.491 461.986 485.114 450.536 485.114 450.536L494.075 519.989Z" fill="#020208"/>
</g>
<path d="M503.802 532.657H30.6685C14.1009 532.657 0.67041 519.226 0.67041 502.658V488.212C0.67041 488.212 139.781 467.162 272.609 467.162C405.436 467.162 533.8 488.212 533.8 488.212V502.658C533.8 519.226 520.37 532.657 503.802 532.657Z" fill="#C5C5C5"/>
<path d="M240.698 467.545C251.326 467.298 261.987 467.164 272.609 467.164C395.219 467.164 514.028 485.099 531.579 487.858" stroke="#B0B0B0" stroke-width="5.71429" stroke-miterlimit="10" stroke-linecap="round"/>
<path d="M2.85742 487.889C17.9003 485.695 108.457 472.942 208.991 468.605" stroke="#B0B0B0" stroke-width="5.71429" stroke-miterlimit="10" stroke-linecap="round"/>
<path d="M228.632 491.466C237.14 499.794 245.362 508.303 256.34 511.27C267.269 514.224 284.549 512.063 292.477 507.242C304.213 500.105 319.649 495.324 335.753 494.457C343.008 494.066 362.579 500.183 360.364 516.523C358.735 528.547 320.492 531.054 320.492 531.054L207.117 530.784C207.117 530.784 179.921 504.859 181.556 494.224C183.265 483.106 213.539 476.693 228.632 491.466Z" fill="#C6C6C5"/>
</svg>
