<svg width="667" height="159" viewBox="0 0 667 159" fill="none" xmlns="http://www.w3.org/2000/svg" aria-hidden="true">
  <defs>
    <linearGradient id="moonSky" x1="333" y1="0" x2="333" y2="145" gradientUnits="userSpaceOnUse">
      <stop stop-color="#E8E8EE" stop-opacity="0"/>
      <stop offset="1" stop-color="#C8C8D0" stop-opacity="0.35"/>
    </linearGradient>
    <radialGradient id="craterA" cx="0" cy="0" r="1" gradientUnits="userSpaceOnUse" gradientTransform="translate(142 118) scale(28 12)">
      <stop stop-color="#6E6E78"/>
      <stop offset="0.65" stop-color="#8A8A94"/>
      <stop offset="1" stop-color="#A8A8B2" stop-opacity="0"/>
    </radialGradient>
    <radialGradient id="craterB" cx="0" cy="0" r="1" gradientUnits="userSpaceOnUse" gradientTransform="translate(380 108) scale(42 16)">
      <stop stop-color="#656570"/>
      <stop offset="0.7" stop-color="#858590"/>
      <stop offset="1" stop-color="#A5A5AF" stop-opacity="0"/>
    </radialGradient>
    <radialGradient id="craterC" cx="0" cy="0" r="1" gradientUnits="userSpaceOnUse" gradientTransform="translate(520 125) scale(22 9)">
      <stop stop-color="#70707A"/>
      <stop offset="1" stop-color="#9C9CA6" stop-opacity="0"/>
    </radialGradient>
    <linearGradient id="regolith" x1="333" y1="145" x2="333" y2="159" gradientUnits="userSpaceOnUse">
      <stop stop-color="#9A9AA4"/>
      <stop offset="1" stop-color="#6E6E76"/>
    </linearGradient>
  </defs>
  <rect width="667" height="145" fill="url(#moonSky)"/>
  <ellipse cx="98" cy="132" rx="34" ry="11" fill="url(#craterA)" opacity="0.85"/>
  <ellipse cx="248" cy="128" rx="18" ry="6" fill="#8E8E98" opacity="0.5"/>
  <ellipse cx="380" cy="120" rx="48" ry="17" fill="url(#craterB)" opacity="0.9"/>
  <ellipse cx="520" cy="128" rx="26" ry="10" fill="url(#craterC)" opacity="0.8"/>
  <ellipse cx="610" cy="135" rx="14" ry="5" fill="#84848E" opacity="0.45"/>
  <ellipse cx="42" cy="140" rx="10" ry="4" fill="#7A7A84" opacity="0.4"/>
  <path d="M168 138L176 132L184 137L179 143Z" fill="#8C8C96" opacity="0.55"/>
  <path d="M302 136L310 129L318 134L312 141Z" fill="#7E7E88" opacity="0.5"/>
  <path d="M448 140L456 133L464 139L458 145Z" fill="#90909A" opacity="0.45"/>
  <path d="M558 137L565 131L572 136L566 142Z" fill="#82828C" opacity="0.5"/>
  <circle cx="215" cy="108" r="2" fill="#B0B0BA" opacity="0.35"/>
  <circle cx="335" cy="95" r="1.5" fill="#B8B8C2" opacity="0.3"/>
  <circle cx="475" cy="102" r="2.2" fill="#A8A8B2" opacity="0.32"/>
  <path d="M666.951 145.403H28.1306V158.414H666.951V145.403Z" fill="url(#regolith)"/>
</svg>
