<svg width="66" height="66" viewBox="0 0 66 66" fill="none" xmlns="http://www.w3.org/2000/svg" aria-hidden="true">
  <path d="M0.0118035 32.212L33.7903 65.9905C42.5018 65.7852 50.377 62.2042 56.1602 56.5053L9.49485 9.83997C3.79595 15.6232 0.214951 23.4983 0.00964355 32.2098L0.0118035 32.212Z" fill="#F03B50"/>
  <path d="M0 33.0004C0 51.2252 14.7735 66.0008 33.0005 66.0008C33.2641 66.0008 33.5278 65.9965 33.7893 65.99L0.0108063 32.2115C0.00432292 32.473 0 32.7367 0 33.0004Z" fill="#AD0404"/>
  <path d="M33.0008 0.00012207C23.8009 0.00012207 15.4805 3.76697 9.49634 9.83975L56.1617 56.5051C62.2344 50.5209 66.0013 42.2005 66.0013 33.0006C66.0013 14.7758 51.2278 0.00012207 33.0008 0.00012207Z" fill="#FF8158"/>
  <path opacity="0.75" d="M33.0038 3.80225C49.1301 3.80225 62.2028 16.8749 62.2028 33.0013" stroke="#F2F2F2" stroke-width="2.59336" stroke-linecap="round" stroke-linejoin="round"/>
</svg>
