<svg width="69" height="53" viewBox="0 0 69 53" fill="none" xmlns="http://www.w3.org/2000/svg" aria-hidden="true">
  <path d="M14.48 1.1L15.72 14H13.9L13.06 3.98C13.04 3.66 13.02 3.38 13.04 3.12H13.02L9.08 13.9H7.44L3.58 3.1H3.56C3.56 3.36 3.54 3.66 3.52 3.98L2.7 14H0.96L2.18 1.1H4.56L8.28 11.44H8.34L12.14 1.1H14.48ZM25.6997 0.259999L23.3397 2.82H21.5797L19.3797 0.259999H20.9797L22.4797 1.86L23.9997 0.259999H25.6997ZM22.4997 4C23.7997 4 24.8997 4.46 25.7797 5.38C26.6797 6.3 27.1197 7.48 27.1197 8.9C27.1197 9.24 27.0997 9.52 27.0797 9.78H19.4797C19.5197 10.58 19.8397 11.26 20.4197 11.82C21.0197 12.38 21.7597 12.66 22.6397 12.66C23.6597 12.66 24.5597 12.24 25.3397 11.38L26.4597 12.44C25.4797 13.64 24.1797 14.24 22.5797 14.24C21.1197 14.24 19.9197 13.74 18.9797 12.76C18.0597 11.78 17.5997 10.56 17.5997 9.12C17.5997 7.68 18.0597 6.46 18.9597 5.48C19.8797 4.5 21.0597 4 22.4997 4ZM22.5197 5.56C21.6597 5.56 20.9597 5.84 20.3997 6.38C19.8397 6.92 19.5397 7.54 19.4797 8.26H25.3597C25.3397 7.48 25.0597 6.84 24.4997 6.34C23.9597 5.82 23.2997 5.56 22.5197 5.56ZM32.7669 4C33.9869 4 34.9469 4.34 35.6069 5.04L34.7069 6.26C34.2069 5.76 33.5869 5.52 32.8269 5.52C31.8069 5.52 31.1869 6 31.1869 6.7C31.1869 7.36 31.5869 7.78 32.6069 8.12L33.6269 8.48C35.1269 8.98 35.8669 9.9 35.8669 11.24C35.8669 12.06 35.5469 12.78 34.8869 13.36C34.2469 13.94 33.4069 14.24 32.3469 14.24C30.9269 14.24 29.8269 13.78 29.0869 12.88L29.9869 11.66C30.6069 12.36 31.3869 12.7 32.3069 12.72C33.3469 12.72 34.1269 12.16 34.1269 11.3C34.1269 10.6 33.6469 10.1 32.7069 9.78L31.5469 9.4C30.1469 8.94 29.4469 8.08 29.4469 6.78C29.4469 5.96 29.7669 5.3 30.3869 4.78C31.0069 4.26 31.8069 4 32.7669 4ZM42.4741 0.259999L39.7141 2.82H38.1941L40.4741 0.259999H42.4741ZM38.6941 4.24H40.4941V14H38.6941V4.24ZM48.3056 4.04C49.7256 4.04 50.8856 4.56 51.7856 5.58L50.7256 6.74C50.1656 5.98 49.3656 5.6 48.3056 5.6C47.3256 5.6 46.5256 5.94 45.9056 6.6C45.2856 7.26 44.9656 8.08 44.9656 9.1C44.9656 10.12 45.2856 10.98 45.9056 11.66C46.5456 12.32 47.3456 12.66 48.3256 12.66C49.3056 12.66 50.1056 12.3 50.7056 11.58L51.8256 12.66C50.9056 13.72 49.7456 14.24 48.3256 14.24C46.8056 14.24 45.5656 13.74 44.6056 12.76C43.6656 11.78 43.1856 10.56 43.1856 9.12C43.1856 7.68 43.6456 6.48 44.5856 5.5C45.5256 4.52 46.7656 4.04 48.3056 4.04Z" fill="white"/>
  <path d="M4.785 33.53C6.09 33.53 6.96 34.085 7.305 34.865C7.32 34.805 7.38 34.385 7.425 34.205L7.53 33.68H8.865L7.515 40.46C7.065 42.725 5.715 43.85 3.465 43.85C1.905 43.85 0.675 43.01 0.255 41.93L1.245 41.345C1.62 42.185 2.4 42.71 3.465 42.71C4.92 42.71 5.82 41.975 6.165 40.505L6.225 40.19L6.315 39.86C5.745 40.535 4.95 40.88 3.915 40.88C2.97 40.88 2.19 40.565 1.605 39.935C1.02 39.305 0.72 38.525 0.72 37.61C0.72 36.44 1.11 35.465 1.89 34.7C2.685 33.92 3.645 33.53 4.785 33.53ZM4.815 34.595C4.05 34.595 3.405 34.895 2.85 35.495C2.31 36.08 2.04 36.785 2.04 37.61C2.04 38.885 2.895 39.725 4.095 39.725C4.86 39.725 5.52 39.425 6.06 38.825C6.6 38.225 6.87 37.505 6.87 36.665C6.87 35.39 6.03 34.595 4.815 34.595ZM21.0246 35.675V36.56H14.6496V35.675H21.0246ZM21.0246 38.09V38.99H14.6496V38.09H21.0246ZM31.5907 31.325V41H30.2557V32.525H27.6607L27.9907 31.325H31.5907ZM36.9571 39.08L36.1471 42.635H35.2171L35.7271 39.08H36.9571ZM43.4947 31.325L41.0347 34.895L41.0497 34.91C41.3197 34.685 41.6947 34.58 42.1747 34.58C43.0597 34.58 43.8247 34.895 44.4697 35.525C45.1147 36.14 45.4447 36.905 45.4447 37.82C45.4447 38.75 45.0997 39.545 44.4247 40.205C43.7497 40.85 42.9397 41.18 41.9647 41.18C40.9897 41.18 40.1797 40.85 39.5197 40.205C38.8597 39.545 38.5297 38.75 38.5297 37.82C38.5297 36.965 38.8597 36.005 39.5347 34.955L41.8597 31.325H43.4947ZM41.9797 35.705C41.3647 35.705 40.8547 35.915 40.4497 36.335C40.0447 36.74 39.8497 37.25 39.8497 37.85C39.8497 38.45 40.0597 38.96 40.4647 39.395C40.8697 39.815 41.3797 40.025 41.9797 40.025C42.5947 40.025 43.1047 39.815 43.5097 39.395C43.9147 38.975 44.1247 38.465 44.1247 37.85C44.1247 37.25 43.9147 36.74 43.5097 36.335C43.1047 35.915 42.5947 35.705 41.9797 35.705Z" fill="white"/>
  <path d="M61.8704 25.938V33.033H60.6164L56.9974 26.972L56.9864 26.983C57.0414 27.258 57.0744 27.577 57.0744 27.94V33H56.1284V25.905H57.4374L61.0124 31.933L61.0234 31.922C60.9574 31.603 60.9244 31.262 60.9244 30.921V25.938H61.8704ZM54.6411 39.443V47H53.6731V39.443H54.6411ZM58.3591 41.632L56.1041 44.085L58.5461 47H57.3031L54.9381 44.074L57.1051 41.632H58.3591ZM61.5871 41.522C62.3901 41.522 62.9951 41.819 63.4021 42.402C63.3911 42.215 63.3801 42.072 63.3801 41.984V41.632H64.3151V46.395C64.3151 48.111 63.2921 49.09 61.5761 49.09C60.4981 49.09 59.6951 48.617 59.1781 47.682L59.8711 47.209C60.2671 47.902 60.8281 48.254 61.5431 48.254C62.6431 48.254 63.3471 47.671 63.3471 46.56V46.274V46.065C62.9401 46.615 62.3461 46.89 61.5541 46.89C60.7951 46.89 60.1681 46.637 59.6841 46.131C59.2001 45.625 58.9581 44.987 58.9581 44.206C58.9581 43.436 59.2001 42.798 59.6841 42.292C60.1791 41.775 60.8061 41.522 61.5871 41.522ZM61.6531 42.38C61.1581 42.38 60.7511 42.556 60.4101 42.908C60.0801 43.26 59.9151 43.7 59.9151 44.217C59.9151 44.723 60.0801 45.152 60.4101 45.504C60.7511 45.856 61.1581 46.032 61.6531 46.032C62.1591 46.032 62.5771 45.856 62.9071 45.515C63.2371 45.163 63.4021 44.734 63.4021 44.217C63.4021 43.7 63.2371 43.26 62.9071 42.908C62.5771 42.556 62.1591 42.38 61.6531 42.38Z" fill="white"/>
  <path d="M51 37.5H68" stroke="white" stroke-linecap="square"/>
</svg>
