<svg width="66" height="53" viewBox="0 0 66 53" fill="none" xmlns="http://www.w3.org/2000/svg">
<path d="M9.9 1.16V2.58L3.08 12.4H10.24V14H0.84V12.58L7.66 2.76H1.16V1.16H9.9ZM16.0348 4C17.3348 4 18.4348 4.46 19.3148 5.38C20.2148 6.3 20.6548 7.48 20.6548 8.9C20.6548 9.24 20.6348 9.52 20.6148 9.78H13.0148C13.0548 10.58 13.3748 11.26 13.9548 11.82C14.5548 12.38 15.2948 12.66 16.1748 12.66C17.1948 12.66 18.0948 12.24 18.8748 11.38L19.9948 12.44C19.0148 13.64 17.7148 14.24 16.1148 14.24C14.6548 14.24 13.4548 13.74 12.5148 12.76C11.5948 11.78 11.1348 10.56 11.1348 9.12C11.1348 7.68 11.5948 6.46 12.4948 5.48C13.4148 4.5 14.5948 4 16.0348 4ZM16.0548 5.56C15.1948 5.56 14.4948 5.84 13.9348 6.38C13.3748 6.92 13.0748 7.54 13.0148 8.26H18.8948C18.8748 7.48 18.5948 6.84 18.0348 6.34C17.4948 5.82 16.8348 5.56 16.0548 5.56ZM34.762 4.04C37.142 4.04 38.642 5.26 38.642 7.48V14H36.882V7.96C36.882 6.38 35.822 5.6 34.442 5.6C33.742 5.6 33.142 5.82 32.642 6.26C32.142 6.7 31.882 7.26 31.882 7.92V14H30.122V7.96C30.122 6.38 29.062 5.6 27.682 5.6C26.982 5.6 26.382 5.82 25.862 6.26C25.362 6.7 25.102 7.26 25.102 7.92V14H23.342V4.24H25.022V4.42V5.38C25.762 4.48 26.802 4.04 28.122 4.04C29.682 4.04 30.782 4.62 31.402 5.76C31.942 4.86 33.182 4.04 34.762 4.04ZM49.2348 0.259999L46.8748 2.82H45.1148L42.9148 0.259999H44.5148L46.0148 1.86L47.5348 0.259999H49.2348ZM46.0348 4C47.3348 4 48.4348 4.46 49.3148 5.38C50.2148 6.3 50.6548 7.48 50.6548 8.9C50.6548 9.24 50.6348 9.52 50.6148 9.78H43.0148C43.0548 10.58 43.3748 11.26 43.9548 11.82C44.5548 12.38 45.2948 12.66 46.1748 12.66C47.1948 12.66 48.0948 12.24 48.8748 11.38L49.9948 12.44C49.0148 13.64 47.7148 14.24 46.1148 14.24C44.6548 14.24 43.4548 13.74 42.5148 12.76C41.5948 11.78 41.1348 10.56 41.1348 9.12C41.1348 7.68 41.5948 6.46 42.4948 5.48C43.4148 4.5 44.5948 4 46.0348 4ZM46.0548 5.56C45.1948 5.56 44.4948 5.84 43.9348 6.38C43.3748 6.92 43.0748 7.54 43.0148 8.26H48.8948C48.8748 7.48 48.5948 6.84 48.0348 6.34C47.4948 5.82 46.8348 5.56 46.0548 5.56Z" fill="black"/>
<path d="M4.785 33.53C6.09 33.53 6.96 34.085 7.305 34.865C7.32 34.805 7.38 34.385 7.425 34.205L7.53 33.68H8.865L7.515 40.46C7.065 42.725 5.715 43.85 3.465 43.85C1.905 43.85 0.675 43.01 0.255 41.93L1.245 41.345C1.62 42.185 2.4 42.71 3.465 42.71C4.92 42.71 5.82 41.975 6.165 40.505L6.225 40.19L6.315 39.86C5.745 40.535 4.95 40.88 3.915 40.88C2.97 40.88 2.19 40.565 1.605 39.935C1.02 39.305 0.72 38.525 0.72 37.61C0.72 36.44 1.11 35.465 1.89 34.7C2.685 33.92 3.645 33.53 4.785 33.53ZM4.815 34.595C4.05 34.595 3.405 34.895 2.85 35.495C2.31 36.08 2.04 36.785 2.04 37.61C2.04 38.885 2.895 39.725 4.095 39.725C4.86 39.725 5.52 39.425 6.06 38.825C6.6 38.225 6.87 37.505 6.87 36.665C6.87 35.39 6.03 34.595 4.815 34.595ZM21.0246 35.675V36.56H14.6496V35.675H21.0246ZM21.0246 38.09V38.99H14.6496V38.09H21.0246ZM31.5907 31.325V41H30.2557V32.525H27.6607L27.9907 31.325H31.5907ZM42.2521 36.155C42.2521 37.67 41.9221 38.885 41.2471 39.8C40.5871 40.7 39.7171 41.15 38.6371 41.15C37.5721 41.15 36.7021 40.7 36.0271 39.8C35.3671 38.885 35.0371 37.67 35.0371 36.155C35.0371 34.64 35.3671 33.44 36.0271 32.54C36.7021 31.625 37.5721 31.175 38.6371 31.175C39.7021 31.175 40.5721 31.625 41.2471 32.54C41.9221 33.44 42.2521 34.64 42.2521 36.155ZM40.2871 33.38C39.8671 32.705 39.3121 32.375 38.6371 32.375C37.9621 32.375 37.4071 32.705 36.9871 33.38C36.5671 34.055 36.3571 34.97 36.3571 36.155C36.3571 37.34 36.5671 38.27 36.9871 38.945C37.4071 39.62 37.9621 39.95 38.6371 39.95C39.3121 39.95 39.8671 39.62 40.2871 38.945C40.7221 38.27 40.9321 37.34 40.9321 36.155C40.9321 34.97 40.7221 34.055 40.2871 33.38Z" fill="black"/>
<path d="M57.8704 25.938V33.033H56.6164L52.9974 26.972L52.9864 26.983C53.0414 27.258 53.0744 27.577 53.0744 27.94V33H52.1284V25.905H53.4374L57.0124 31.933L57.0234 31.922C56.9574 31.603 56.9244 31.262 56.9244 30.921V25.938H57.8704ZM50.6411 39.443V47H49.6731V39.443H50.6411ZM54.3591 41.632L52.1041 44.085L54.5461 47H53.3031L50.9381 44.074L53.1051 41.632H54.3591ZM57.5871 41.522C58.3901 41.522 58.9951 41.819 59.4021 42.402C59.3911 42.215 59.3801 42.072 59.3801 41.984V41.632H60.3151V46.395C60.3151 48.111 59.2921 49.09 57.5761 49.09C56.4981 49.09 55.6951 48.617 55.1781 47.682L55.8711 47.209C56.2671 47.902 56.8281 48.254 57.5431 48.254C58.6431 48.254 59.3471 47.671 59.3471 46.56V46.274V46.065C58.9401 46.615 58.3461 46.89 57.5541 46.89C56.7951 46.89 56.1681 46.637 55.6841 46.131C55.2001 45.625 54.9581 44.987 54.9581 44.206C54.9581 43.436 55.2001 42.798 55.6841 42.292C56.1791 41.775 56.8061 41.522 57.5871 41.522ZM57.6531 42.38C57.1581 42.38 56.7511 42.556 56.4101 42.908C56.0801 43.26 55.9151 43.7 55.9151 44.217C55.9151 44.723 56.0801 45.152 56.4101 45.504C56.7511 45.856 57.1581 46.032 57.6531 46.032C58.1591 46.032 58.5771 45.856 58.9071 45.515C59.2371 45.163 59.4021 44.734 59.4021 44.217C59.4021 43.7 59.2371 43.26 58.9071 42.908C58.5771 42.556 58.1591 42.38 57.6531 42.38Z" fill="black"/>
<path d="M48 37.5H65" stroke="black" stroke-linecap="square"/>
</svg>