<svg width="115" height="53" viewBox="0 0 115 53" fill="none" xmlns="http://www.w3.org/2000/svg" aria-hidden="true">
  <path d="M4.72 4C5.94 4 6.9 4.34 7.56 5.04L6.66 6.26C6.16 5.76 5.54 5.52 4.78 5.52C3.76 5.52 3.14 6 3.14 6.7C3.14 7.36 3.54 7.78 4.56 8.12L5.58 8.48C7.08 8.98 7.82 9.9 7.82 11.24C7.82 12.06 7.5 12.78 6.84 13.36C6.2 13.94 5.36 14.24 4.3 14.24C2.88 14.24 1.78 13.78 1.04 12.88L1.94 11.66C2.56 12.36 3.34 12.7 4.26 12.72C5.3 12.72 6.08 12.16 6.08 11.3C6.08 10.6 5.6 10.1 4.66 9.78L3.5 9.4C2.1 8.94 1.4 8.08 1.4 6.78C1.4 5.96 1.72 5.3 2.34 4.78C2.96 4.26 3.76 4 4.72 4ZM12.7472 1.66V4.24H14.9272V5.76H12.7472V14H10.9872V5.76H9.48719V4.24H10.9872V1.66H12.7472ZM21.1934 4.04C22.7934 4.04 24.0534 4.74 24.6934 5.7C24.6734 5.36 24.6534 5.1 24.6534 4.94V4.24H26.3534V14H24.6534V13.34C24.6534 13.16 24.6734 12.88 24.6934 12.54C24.0534 13.52 22.7934 14.24 21.1934 14.24C19.6934 14.24 18.4934 13.74 17.5734 12.76C16.6534 11.78 16.1934 10.56 16.1934 9.12C16.1934 7.68 16.6534 6.48 17.5734 5.5C18.4934 4.52 19.6934 4.04 21.1934 4.04ZM21.3134 5.6C20.3734 5.6 19.5934 5.94 18.9334 6.62C18.2734 7.28 17.9534 8.12 17.9534 9.12C17.9534 10.12 18.2734 10.96 18.9334 11.64C19.5934 12.32 20.3734 12.66 21.3134 12.66C22.2934 12.66 23.1134 12.32 23.7334 11.66C24.3534 10.98 24.6734 10.14 24.6734 9.12C24.6734 8.12 24.3534 7.28 23.7334 6.62C23.1134 5.94 22.2934 5.6 21.3134 5.6ZM37.8473 4.24L34.1673 14.1H32.0273L28.4073 4.24H30.3673L32.9273 11.86C32.9673 12 33.0673 12.2 33.1073 12.34H33.1273C33.1473 12.24 33.2673 11.96 33.2873 11.86L35.8873 4.24H37.8473ZM45.9592 0.259999H47.7192V4.92C47.7192 5.08 47.6992 5.34 47.6792 5.68C48.2592 4.74 49.5392 4.04 51.1392 4.04C52.6392 4.04 53.8392 4.52 54.7592 5.5C55.6792 6.48 56.1392 7.68 56.1392 9.12C56.1392 10.56 55.6792 11.78 54.7392 12.76C53.8192 13.74 52.6192 14.24 51.1392 14.24C49.5392 14.24 48.2792 13.52 47.6192 12.54C47.6592 12.8 47.6792 13.08 47.6792 13.34V14H45.9592V0.259999ZM51.0192 5.6C50.0392 5.6 49.2192 5.94 48.5792 6.62C47.9592 7.28 47.6392 8.12 47.6392 9.12C47.6392 10.14 47.9592 10.98 48.5792 11.66C49.2192 12.32 50.0392 12.66 51.0192 12.66C51.9592 12.66 52.7392 12.32 53.3992 11.64C54.0592 10.96 54.3792 10.12 54.3792 9.12C54.3792 8.12 54.0592 7.28 53.3992 6.62C52.7392 5.94 51.9592 5.6 51.0192 5.6ZM62.8708 4C64.1708 4 65.2708 4.46 66.1508 5.38C67.0508 6.3 67.4908 7.48 67.4908 8.9C67.4908 9.24 67.4708 9.52 67.4508 9.78H59.8508C59.8908 10.58 60.2108 11.26 60.7908 11.82C61.3908 12.38 62.1308 12.66 63.0108 12.66C64.0308 12.66 64.9308 12.24 65.7108 11.38L66.8308 12.44C65.8508 13.64 64.5508 14.24 62.9508 14.24C61.4908 14.24 60.2908 13.74 59.3508 12.76C58.4308 11.78 57.9708 10.56 57.9708 9.12C57.9708 7.68 58.4308 6.46 59.3308 5.48C60.2508 4.5 61.4308 4 62.8708 4ZM62.8908 5.56C62.0308 5.56 61.3308 5.84 60.7708 6.38C60.2108 6.92 59.9108 7.54 59.8508 8.26H65.7308C65.7108 7.48 65.4308 6.84 64.8708 6.34C64.3308 5.82 63.6708 5.56 62.8908 5.56ZM76.778 4.24L76.798 5.44L72.258 11.54C72.058 11.84 71.798 12.14 71.478 12.48H76.978V14H69.218L69.198 12.8L73.738 6.72C73.858 6.52 74.118 6.2 74.498 5.76H69.578V4.24H76.778ZM81.5753 1.66V4.24H83.7553V5.76H81.5753V14H79.8153V5.76H78.3153V4.24H79.8153V1.66H81.5753ZM89.7983 0.259999L87.0383 2.82H85.5183L87.7983 0.259999H89.7983ZM86.0183 4.24H87.8183V14H86.0183V4.24ZM97.4498 0.259999L95.0898 2.82H93.3298L91.1298 0.259999H92.7298L94.2298 1.86L95.7498 0.259999H97.4498ZM97.9498 4.24L97.9698 5.44L93.4298 11.54C93.2298 11.84 92.9698 12.14 92.6498 12.48H98.1498V14H90.3898L90.3698 12.8L94.9098 6.72C95.0298 6.52 95.2898 6.2 95.6698 5.76H90.7498V4.24H97.9498ZM104.687 4C105.987 4 107.087 4.46 107.967 5.38C108.867 6.3 109.307 7.48 109.307 8.9C109.307 9.24 109.287 9.52 109.267 9.78H101.667C101.707 10.58 102.027 11.26 102.607 11.82C103.207 12.38 103.947 12.66 104.827 12.66C105.847 12.66 106.747 12.24 107.527 11.38L108.647 12.44C107.667 13.64 106.367 14.24 104.767 14.24C103.307 14.24 102.107 13.74 101.167 12.76C100.247 11.78 99.7872 10.56 99.7872 9.12C99.7872 7.68 100.247 6.46 101.147 5.48C102.067 4.5 103.247 4 104.687 4ZM104.707 5.56C103.847 5.56 103.147 5.84 102.587 6.38C102.027 6.92 101.727 7.54 101.667 8.26H107.547C107.527 7.48 107.247 6.84 106.687 6.34C106.147 5.82 105.487 5.56 104.707 5.56Z" fill="white"/>
  <path d="M4.785 33.53C6.09 33.53 6.96 34.085 7.305 34.865C7.32 34.805 7.38 34.385 7.425 34.205L7.53 33.68H8.865L7.515 40.46C7.065 42.725 5.715 43.85 3.465 43.85C1.905 43.85 0.675 43.01 0.255 41.93L1.245 41.345C1.62 42.185 2.4 42.71 3.465 42.71C4.92 42.71 5.82 41.975 6.165 40.505L6.225 40.19L6.315 39.86C5.745 40.535 4.95 40.88 3.915 40.88C2.97 40.88 2.19 40.565 1.605 39.935C1.02 39.305 0.72 38.525 0.72 37.61C0.72 36.44 1.11 35.465 1.89 34.7C2.685 33.92 3.645 33.53 4.785 33.53ZM4.815 34.595C4.05 34.595 3.405 34.895 2.85 35.495C2.31 36.08 2.04 36.785 2.04 37.61C2.04 38.885 2.895 39.725 4.095 39.725C4.86 39.725 5.52 39.425 6.06 38.825C6.6 38.225 6.87 37.505 6.87 36.665C6.87 35.39 6.03 34.595 4.815 34.595ZM21.0246 35.675V36.56H14.6496V35.675H21.0246ZM21.0246 38.09V38.99H14.6496V38.09H21.0246ZM33.9757 36.155C33.9757 37.67 33.6457 38.885 32.9707 39.8C32.3107 40.7 31.4407 41.15 30.3607 41.15C29.2957 41.15 28.4257 40.7 27.7507 39.8C27.0907 38.885 26.7607 37.67 26.7607 36.155C26.7607 34.64 27.0907 33.44 27.7507 32.54C28.4257 31.625 29.2957 31.175 30.3607 31.175C31.4257 31.175 32.2957 31.625 32.9707 32.54C33.6457 33.44 33.9757 34.64 33.9757 36.155ZM32.0107 33.38C31.5907 32.705 31.0357 32.375 30.3607 32.375C29.6857 32.375 29.1307 32.705 28.7107 33.38C28.2907 34.055 28.0807 34.97 28.0807 36.155C28.0807 37.34 28.2907 38.27 28.7107 38.945C29.1307 39.62 29.6857 39.95 30.3607 39.95C31.0357 39.95 31.5907 39.62 32.0107 38.945C32.4457 38.27 32.6557 37.34 32.6557 36.155C32.6557 34.97 32.4457 34.055 32.0107 33.38Z" fill="white"/>
  <path d="M50.8704 25.938V33.033H49.6164L45.9974 26.972L45.9864 26.983C46.0414 27.258 46.0744 27.577 46.0744 27.94V33H45.1284V25.905H46.4374L50.0124 31.933L50.0234 31.922C49.9574 31.603 49.9244 31.262 49.9244 30.921V25.938H50.8704ZM43.6411 39.443V47H42.6731V39.443H43.6411ZM47.3591 41.632L45.1041 44.085L47.5461 47H46.3031L43.9381 44.074L46.1051 41.632H47.3591ZM50.5871 41.522C51.3901 41.522 51.9951 41.819 52.4021 42.402C52.3911 42.215 52.3801 42.072 52.3801 41.984V41.632H53.3151V46.395C53.3151 48.111 52.2921 49.09 50.5761 49.09C49.4981 49.09 48.6951 48.617 48.1781 47.682L48.8711 47.209C49.2671 47.902 49.8281 48.254 50.5431 48.254C51.6431 48.254 52.3471 47.671 52.3471 46.56V46.274V46.065C51.9401 46.615 51.3461 46.89 50.5541 46.89C49.7951 46.89 49.1681 46.637 48.6841 46.131C48.2001 45.625 47.9581 44.987 47.9581 44.206C47.9581 43.436 48.2001 42.798 48.6841 42.292C49.1791 41.775 49.8061 41.522 50.5871 41.522ZM50.6531 42.38C50.1581 42.38 49.7511 42.556 49.4101 42.908C49.0801 43.26 48.9151 43.7 48.9151 44.217C48.9151 44.723 49.0801 45.152 49.4101 45.504C49.7511 45.856 50.1581 46.032 50.6531 46.032C51.1591 46.032 51.5771 45.856 51.9071 45.515C52.2371 45.163 52.4021 44.734 52.4021 44.217C52.4021 43.7 52.2371 43.26 51.9071 42.908C51.5771 42.556 51.1591 42.38 50.6531 42.38Z" fill="white"/>
  <path d="M40 37.5H57" stroke="white" stroke-linecap="square"/>
</svg>
