<svg xmlns='http://www.w3.org/2000/svg' viewBox='0 0 1000 1000' preserveAspectRatio='xMidYMid slice'><rect width='1000' height='1000' fill='#020208'/><circle cx="0" cy="524" r="1" fill="white" opacity="0.5"/><circle cx="376" cy="196" r="1.2" fill="white" opacity="0.8"/><circle cx="530" cy="257" r="0.4" fill="white" opacity="0.95"/><circle cx="900" cy="452" r="0.6" fill="white" opacity="0.5"/><circle cx="188" cy="323" r="0.4" fill="white" opacity="0.95"/><circle cx="534" cy="844" r="1" fill="white" opacity="0.35"/><circle cx="539" cy="131" r="1.2" fill="white" opacity="0.65"/><circle cx="471" cy="450" r="0.6" fill="white" opacity="0.35"/><circle cx="23" cy="993" r="1.2" fill="white" opacity="0.95"/><circle cx="570" cy="769" r="1" fill="white" opacity="0.65"/><circle cx="375" cy="267" r="0.6" fill="white" opacity="0.8"/><circle cx="363" cy="52" r="0.8" fill="white" opacity="0.35"/><circle cx="453" cy="329" r="0.4" fill="white" opacity="0.35"/><circle cx="986" cy="546" r="0.4" fill="white" opacity="1"/><circle cx="433" cy="701" r="0.4" fill="white" opacity="0.8"/><circle cx="995" cy="189" r="1" fill="white" opacity="0.65"/><circle cx="438" cy="747" r="0.4" fill="white" opacity="0.95"/><circle cx="806" cy="97" r="0.4" fill="white" opacity="0.35"/><circle cx="637" cy="380" r="0.6" fill="white" opacity="0.8"/><circle cx="521" cy="103" r="1.2" fill="white" opacity="0.65"/><circle cx="768" cy="265" r="1" fill="white" opacity="1"/><circle cx="466" cy="440" r="1.2" fill="white" opacity="0.65"/><circle cx="977" cy="320" r="1" fill="white" opacity="1"/><circle cx="742" cy="557" r="1.2" fill="white" opacity="0.8"/><circle cx="307" cy="343" r="0.6" fill="white" opacity="0.65"/><circle cx="566" cy="652" r="0.4" fill="white" opacity="0.65"/><circle cx="456" cy="9" r="1" fill="white" opacity="0.65"/><circle cx="446" cy="936" r="0.4" fill="white" opacity="0.65"/><circle cx="292" cy="410" r="0.6" fill="white" opacity="0.65"/><circle cx="710" cy="935" r="0.4" fill="white" opacity="0.65"/><circle cx="821" cy="532" r="0.4" fill="white" opacity="0.65"/><circle cx="128" cy="812" r="0.6" fill="white" opacity="0.35"/><circle cx="597" cy="336" r="0.6" fill="white" opacity="0.65"/><circle cx="314" cy="616" r="0.6" fill="white" opacity="0.5"/><circle cx="989" cy="196" r="1" fill="white" opacity="0.8"/><circle cx="784" cy="127" r="0.6" fill="white" opacity="0.5"/><circle cx="298" cy="168" r="1.2" fill="white" opacity="0.95"/><circle cx="589" cy="517" r="0.8" fill="white" opacity="0.65"/><circle cx="293" cy="389" r="0.8" fill="white" opacity="0.65"/><circle cx="321" cy="352" r="0.4" fill="white" opacity="0.95"/><circle cx="409" cy="10" r="0.6" fill="white" opacity="0.8"/><circle cx="191" cy="870" r="1.2" fill="white" opacity="1"/><circle cx="794" cy="233" r="0.8" fill="white" opacity="0.5"/><circle cx="871" cy="812" r="1.2" fill="white" opacity="0.65"/><circle cx="628" cy="674" r="1.2" fill="white" opacity="0.35"/><circle cx="680" cy="996" r="1.2" fill="white" opacity="0.35"/><circle cx="369" cy="40" r="0.8" fill="white" opacity="0.5"/><circle cx="505" cy="156" r="1" fill="white" opacity="0.5"/><circle cx="216" cy="337" r="1" fill="white" opacity="0.65"/><circle cx="957" cy="575" r="0.8" fill="white" opacity="0.8"/><circle cx="937" cy="492" r="0.8" fill="white" opacity="0.35"/><circle cx="753" cy="151" r="0.8" fill="white" opacity="0.8"/><circle cx="344" cy="389" r="0.6" fill="white" opacity="0.95"/><circle cx="481" cy="649" r="0.8" fill="white" opacity="0.35"/><circle cx="630" cy="674" r="0.4" fill="white" opacity="0.95"/><circle cx="213" cy="49" r="0.8" fill="white" opacity="0.95"/><circle cx="963" cy="535" r="0.4" fill="white" opacity="0.8"/><circle cx="381" cy="498" r="0.6" fill="white" opacity="0.65"/><circle cx="845" cy="846" r="1.2" fill="white" opacity="0.8"/><circle cx="52" cy="732" r="0.6" fill="white" opacity="0.8"/><circle cx="23" cy="468" r="1" fill="white" opacity="1"/><circle cx="336" cy="883" r="1.2" fill="white" opacity="0.65"/><circle cx="480" cy="886" r="0.4" fill="white" opacity="0.35"/><circle cx="480" cy="548" r="0.8" fill="white" opacity="0.8"/><circle cx="664" cy="583" r="1" fill="white" opacity="0.35"/><circle cx="774" cy="805" r="1.2" fill="white" opacity="0.65"/><circle cx="88" cy="442" r="1.2" fill="white" opacity="1"/><circle cx="404" cy="330" r="1.2" fill="white" opacity="0.95"/><circle cx="373" cy="307" r="0.4" fill="white" opacity="1"/><circle cx="628" cy="922" r="1" fill="white" opacity="1"/><circle cx="146" cy="475" r="0.4" fill="white" opacity="0.5"/><circle cx="250" cy="428" r="1" fill="white" opacity="0.95"/><circle cx="242" cy="428" r="1" fill="white" opacity="0.8"/><circle cx="493" cy="801" r="1.2" fill="white" opacity="0.5"/><circle cx="215" cy="658" r="0.6" fill="white" opacity="0.65"/><circle cx="242" cy="623" r="0.4" fill="white" opacity="0.8"/><circle cx="370" cy="125" r="0.8" fill="white" opacity="0.65"/><circle cx="393" cy="932" r="0.4" fill="white" opacity="0.35"/><circle cx="264" cy="695" r="1.2" fill="white" opacity="0.8"/><circle cx="7" cy="790" r="0.6" fill="white" opacity="0.35"/><circle cx="157" cy="387" r="0.4" fill="white" opacity="0.5"/><circle cx="683" cy="199" r="0.4" fill="white" opacity="0.95"/><circle cx="759" cy="95" r="1.2" fill="white" opacity="0.8"/><circle cx="506" cy="768" r="1.2" fill="white" opacity="0.5"/><circle cx="730" cy="287" r="0.8" fill="white" opacity="0.8"/><circle cx="214" cy="401" r="0.8" fill="white" opacity="0.8"/><circle cx="272" cy="679" r="0.6" fill="white" opacity="0.65"/><circle cx="505" cy="338" r="1" fill="white" opacity="0.95"/><circle cx="876" cy="436" r="0.8" fill="white" opacity="0.5"/><circle cx="144" cy="440" r="1" fill="white" opacity="1"/><circle cx="828" cy="627" r="0.8" fill="white" opacity="0.35"/><circle cx="937" cy="549" r="0.4" fill="white" opacity="0.95"/><circle cx="362" cy="446" r="0.4" fill="white" opacity="0.35"/><circle cx="318" cy="927" r="1" fill="white" opacity="0.95"/><circle cx="728" cy="338" r="0.8" fill="white" opacity="0.8"/><circle cx="644" cy="218" r="1" fill="white" opacity="0.8"/><circle cx="189" cy="178" r="1.2" fill="white" opacity="0.65"/><circle cx="849" cy="938" r="1.2" fill="white" opacity="0.65"/><circle cx="329" cy="266" r="0.8" fill="white" opacity="0.95"/><circle cx="807" cy="848" r="0.6" fill="white" opacity="0.35"/><circle cx="202" cy="328" r="1" fill="white" opacity="0.95"/><circle cx="623" cy="772" r="0.6" fill="white" opacity="0.8"/><circle cx="816" cy="27" r="0.6" fill="white" opacity="0.65"/><circle cx="880" cy="586" r="0.6" fill="white" opacity="0.5"/><circle cx="966" cy="731" r="0.6" fill="white" opacity="0.65"/><circle cx="125" cy="67" r="0.6" fill="white" opacity="1"/><circle cx="752" cy="313" r="0.4" fill="white" opacity="0.35"/><circle cx="216" cy="266" r="1" fill="white" opacity="1"/><circle cx="413" cy="449" r="1" fill="white" opacity="0.35"/><circle cx="960" cy="232" r="1.2" fill="white" opacity="0.8"/><circle cx="199" cy="36" r="0.8" fill="white" opacity="0.8"/><circle cx="494" cy="145" r="1.2" fill="white" opacity="1"/><circle cx="755" cy="793" r="0.8" fill="white" opacity="0.5"/><circle cx="220" cy="69" r="1.2" fill="white" opacity="0.5"/><circle cx="918" cy="878" r="0.8" fill="white" opacity="0.95"/><circle cx="148" cy="712" r="0.6" fill="white" opacity="1"/><circle cx="183" cy="977" r="0.4" fill="white" opacity="1"/><circle cx="895" cy="801" r="1" fill="white" opacity="1"/><circle cx="255" cy="390" r="0.4" fill="white" opacity="0.35"/><circle cx="465" cy="871" r="1" fill="white" opacity="0.35"/><circle cx="192" cy="880" r="0.6" fill="white" opacity="0.65"/><circle cx="758" cy="316" r="0.6" fill="white" opacity="0.8"/><circle cx="105" cy="302" r="1.2" fill="white" opacity="0.65"/><circle cx="219" cy="629" r="1" fill="white" opacity="0.8"/><circle cx="684" cy="310" r="1" fill="white" opacity="0.65"/><circle cx="897" cy="601" r="0.8" fill="white" opacity="0.95"/><circle cx="426" cy="968" r="0.6" fill="white" opacity="0.95"/><circle cx="0" cy="803" r="0.6" fill="white" opacity="1"/><circle cx="335" cy="83" r="0.6" fill="white" opacity="0.95"/><circle cx="928" cy="318" r="1.2" fill="white" opacity="0.5"/><circle cx="548" cy="805" r="0.8" fill="white" opacity="0.95"/><circle cx="597" cy="41" r="1" fill="white" opacity="0.95"/><circle cx="729" cy="217" r="1" fill="white" opacity="0.5"/><circle cx="645" cy="468" r="0.8" fill="white" opacity="0.95"/><circle cx="954" cy="201" r="0.4" fill="white" opacity="0.95"/><circle cx="743" cy="417" r="0.6" fill="white" opacity="0.65"/><circle cx="803" cy="743" r="1.2" fill="white" opacity="0.5"/><circle cx="619" cy="846" r="0.4" fill="white" opacity="0.65"/><circle cx="340" cy="280" r="0.8" fill="white" opacity="0.5"/><circle cx="659" cy="113" r="1.2" fill="white" opacity="0.35"/></svg>