<svg width="990" height="415" viewBox="0 0 990 415" fill="none" xmlns="http://www.w3.org/2000/svg" aria-hidden="true">
<g transform="translate(665 0)">
<path d="M298.244 342.022L152.796 354.941L227.536 124.214L298.244 342.022L156.827 342.494Z" fill="#167D5D"/>
<path d="M156.829 218.282L227.538 0L298.246 218.282" fill="#167D5D"/>
</g>
<path d="M312.981 346.554C312.981 346.554 317.509 269.357 343.946 211.51" stroke="#57D976" stroke-width="10.582" stroke-miterlimit="10" stroke-linecap="round"/>
<path d="M312.981 346.554C312.981 346.554 335.891 313.433 319.278 250.445" stroke="#57D976" stroke-width="10.582" stroke-miterlimit="10" stroke-linecap="round"/>
<path d="M435.775 346.556C435.775 346.556 436.396 292.258 463.754 281.999" stroke="#57D976" stroke-width="10.582" stroke-miterlimit="10" stroke-linecap="round"/>
<path d="M568.428 313.604C568.428 313.604 573.092 338.163 540.136 346.866" stroke="#57D976" stroke-width="10.582" stroke-miterlimit="10" stroke-linecap="round"/>
<path d="M585.526 338.477C585.526 338.477 588.576 335.6 588.099 318.865" stroke="#57D976" stroke-width="10.582" stroke-miterlimit="10" stroke-linecap="round"/>
<path d="M931.909 414.778H55.7357C25.0549 414.778 0.183594 389.905 0.183594 359.224V332.471H987.461V359.224C987.461 389.905 962.59 414.778 931.909 414.778Z" fill="#57D976"/>
<path d="M133.799 345.111C133.799 345.111 161.461 283.968 133.799 226.388" stroke="#57D976" stroke-width="10.582" stroke-miterlimit="10" stroke-linecap="round"/>
<path d="M104.84 346.556C104.84 346.556 172.528 212.221 146.094 154.374" stroke="#57D976" stroke-width="10.582" stroke-miterlimit="10" stroke-linecap="round"/>
<path d="M104.838 346.554C104.838 346.554 81.9262 313.433 98.5418 250.445" stroke="#57D976" stroke-width="10.582" stroke-miterlimit="10" stroke-linecap="round"/>
<path d="M87.8661 346.556C87.8661 346.556 87.2435 292.258 59.8855 281.999" stroke="#57D976" stroke-width="10.582" stroke-miterlimit="10" stroke-linecap="round"/>
<path d="M53.9774 317.131C53.9774 317.131 49.3142 341.69 82.2702 350.394" stroke="#57D976" stroke-width="10.582" stroke-miterlimit="10" stroke-linecap="round"/>
<path d="M36.8804 342.004C36.8804 342.004 33.8292 339.128 34.3072 322.392" stroke="#167D5D" stroke-width="10.582" stroke-miterlimit="10" stroke-linecap="round"/>
<path d="M5.66515 346.554C5.66515 346.554 -1.11087 224.819 43.0109 165.99" stroke="#57D976" stroke-width="10.582" stroke-miterlimit="10" stroke-linecap="round"/>
<path d="M17.2753 310.711C17.2753 310.711 9.24354 341.431 11.6527 344.039C14.0619 346.651 12.0566 326.373 25.9102 323.964" stroke="#57D976" stroke-width="10.582" stroke-miterlimit="10" stroke-linecap="round"/>
<path d="M19.6846 343.036C19.6846 343.036 32.3336 343.84 31.3301 334.202" stroke="#57D976" stroke-width="10.582" stroke-miterlimit="10" stroke-linecap="round"/>
<path d="M982.782 350.163C982.782 337.159 991.142 259.6 960.026 239.63" stroke="#57D976" stroke-width="10.582" stroke-miterlimit="10" stroke-linecap="round"/>
<path d="M891.467 354.533C891.467 354.533 889.835 289.23 869.862 268.847" stroke="#57D976" stroke-width="10.582" stroke-miterlimit="10" stroke-linecap="round"/>
<path d="M875.16 352.415C875.16 352.415 901.655 315.32 897.987 302.274" stroke="#57D976" stroke-width="10.582" stroke-miterlimit="10" stroke-linecap="round"/>
<path d="M911.442 344.671C911.442 344.671 902.066 340.595 911.442 322.251" stroke="#57D976" stroke-width="10.582" stroke-miterlimit="10" stroke-linecap="round"/>
<path d="M976.245 343.946C976.245 343.946 972.666 324.519 965.255 321.963" stroke="#57D976" stroke-width="10.582" stroke-miterlimit="10" stroke-linecap="round"/>
<path d="M957.588 327.33C962.188 333.72 956.052 345.99 956.052 345.99C956.052 345.99 941.996 341.9 941.996 330.143" stroke="#57D976" stroke-width="10.582" stroke-miterlimit="10" stroke-linecap="round"/>
<path d="M932.282 342.155C932.282 342.155 928.447 328.353 907.998 332.953C887.551 337.554 889.851 345.99 874.005 345.99" stroke="#57D976" stroke-width="10.582" stroke-miterlimit="10" stroke-linecap="round"/>
<path d="M108.067 376.345C108.067 376.345 68.2189 307.258 121.349 237.893" stroke="#167D5D" stroke-width="10.582" stroke-miterlimit="10" stroke-linecap="round"/>
<path d="M69.2119 345.11C69.2119 345.11 100.923 316.508 100.923 285.11" stroke="#167D5D" stroke-width="10.582" stroke-miterlimit="10" stroke-linecap="round"/>
</svg>
