<svg width="667" height="159" viewBox="0 0 667 159" fill="none" xmlns="http://www.w3.org/2000/svg">
<path fill-rule="evenodd" clip-rule="evenodd" d="M580.3 55.6632C579.99 55.6583 579.489 56.0472 578.832 56.8512C578.081 57.7692 577.127 59.2302 576.082 61.1952C575.036 63.1592 573.907 65.6332 572.832 68.6322C571.756 71.6312 570.742 75.1622 569.957 79.1322C569.237 82.7732 568.723 86.7822 568.457 91.1012C568.19 95.4202 568.185 100.05 568.488 104.882C568.939 112.017 569.981 119.602 571.613 127.445C573.245 135.288 575.461 143.382 577.988 151.57C578.503 153.239 579.025 154.871 579.55 156.507C579.756 157.151 579.968 157.774 580.175 158.413H590.613C590.087 156.772 589.573 155.171 589.05 153.507C588.545 151.889 588.053 150.271 587.55 148.632C585.083 140.594 582.857 132.774 581.082 125.32C579.307 117.865 577.994 110.775 577.207 104.101C576.672 99.5952 576.354 95.2782 576.269 91.2572C576.184 87.2361 576.329 83.5022 576.613 80.0702C577.227 72.6002 578.559 66.6202 579.519 62.4762C579.999 60.4042 580.368 58.7772 580.55 57.6322C580.733 56.4872 580.716 55.8342 580.425 55.6952C580.389 55.6772 580.345 55.6642 580.3 55.6632Z" fill="url(#pk_paint0_linear_1396_734)"/>
<path fill-rule="evenodd" clip-rule="evenodd" d="M608.03 78.2132C607.291 78.2132 606.597 80.2906 605.92 83.9736C605.244 87.6565 604.57 92.9599 603.911 99.5466C603.252 106.133 602.625 113.988 602.136 122.756C601.646 131.523 601.307 141.21 601.499 151.424C601.505 151.763 601.525 152.09 601.533 152.428C601.568 154.191 601.631 155.95 601.7 157.686H612.417C612.361 155.871 612.292 154.045 612.25 152.194C612.243 151.864 612.223 151.553 612.217 151.223C612.024 141.264 612.035 131.709 611.982 122.991C611.929 114.272 611.824 106.392 611.513 99.7487C611.203 93.1058 610.712 87.7266 610.107 84.0086C609.502 80.2899 608.77 78.2148 608.03 78.2148L608.03 78.2132Z" fill="url(#pk_paint1_linear_1396_734)"/>
<path fill-rule="evenodd" clip-rule="evenodd" d="M617.87 86.4832C617.213 86.6868 617.264 88.9155 617.714 92.7644C618.164 96.6134 619.016 102.091 619.901 108.858C620.787 115.625 621.682 123.697 622.401 132.702C623.035 140.636 623.512 149.32 623.87 158.421H633.87C633.459 148.983 632.685 139.938 631.558 131.702C630.297 122.493 628.621 114.272 626.808 107.483C624.994 100.695 623.049 95.3344 621.433 91.7334C619.816 88.1322 618.527 86.2796 617.87 86.4832Z" fill="url(#pk_paint2_linear_1396_734)"/>
<path fill-rule="evenodd" clip-rule="evenodd" d="M580.3 55.6632C579.99 55.6583 579.489 56.0472 578.832 56.8512C578.081 57.7692 577.127 59.2302 576.082 61.1952C575.036 63.1592 573.907 65.6332 572.832 68.6322C571.756 71.6312 570.742 75.1622 569.957 79.1322C569.237 82.7732 568.723 86.7822 568.457 91.1012C568.19 95.4202 568.185 100.05 568.488 104.882C568.939 112.017 569.981 119.602 571.613 127.445C573.245 135.288 575.461 143.382 577.988 151.57C578.503 153.239 579.025 154.871 579.55 156.507C579.756 157.151 579.968 157.774 580.175 158.413H590.613C590.087 156.772 589.573 155.171 589.05 153.507C588.545 151.889 588.053 150.271 587.55 148.632C585.083 140.594 582.857 132.774 581.082 125.32C579.307 117.865 577.994 110.775 577.207 104.101C576.672 99.5952 576.354 95.2782 576.269 91.2572C576.184 87.2361 576.329 83.5022 576.613 80.0702C577.227 72.6002 578.559 66.6202 579.519 62.4762C579.999 60.4042 580.368 58.7772 580.55 57.6322C580.733 56.4872 580.716 55.8342 580.425 55.6952C580.389 55.6772 580.345 55.6642 580.3 55.6632Z" fill="url(#pk_paint3_linear_1396_734)"/>
<path fill-rule="evenodd" clip-rule="evenodd" d="M608.03 78.2132C607.291 78.2132 606.597 80.2906 605.92 83.9736C605.244 87.6565 604.57 92.9599 603.911 99.5466C603.252 106.133 602.625 113.988 602.136 122.756C601.646 131.523 601.307 141.21 601.499 151.424C601.505 151.763 601.525 152.09 601.533 152.428C601.568 154.191 601.631 155.95 601.7 157.686H612.417C612.361 155.871 612.292 154.045 612.25 152.194C612.243 151.864 612.223 151.553 612.217 151.223C612.024 141.264 612.035 131.709 611.982 122.991C611.929 114.272 611.824 106.392 611.513 99.7487C611.203 93.1058 610.712 87.7266 610.107 84.0086C609.502 80.2899 608.77 78.2148 608.03 78.2148L608.03 78.2132Z" fill="url(#pk_paint4_linear_1396_734)"/>
<path fill-rule="evenodd" clip-rule="evenodd" d="M617.87 86.4832C617.213 86.6868 617.264 88.9155 617.714 92.7644C618.164 96.6134 619.016 102.091 619.901 108.858C620.787 115.625 621.682 123.697 622.401 132.702C623.035 140.636 623.512 149.32 623.87 158.421H633.87C633.459 148.983 632.685 139.938 631.558 131.702C630.297 122.493 628.621 114.272 626.808 107.483C624.994 100.695 623.049 95.3344 621.433 91.7334C619.816 88.1322 618.527 86.2796 617.87 86.4832Z" fill="url(#pk_paint5_linear_1396_734)"/>
<path fill-rule="evenodd" clip-rule="evenodd" d="M594.86 42.8932C594.542 42.8882 594.027 43.2871 593.352 44.1122C592.581 45.0552 591.601 46.5552 590.528 48.5732C589.455 50.5912 588.295 53.1312 587.19 56.2112C586.085 59.2912 585.045 62.9172 584.238 66.9942C583.499 70.7332 582.971 74.8502 582.697 79.2852C582.423 83.7212 582.418 88.4752 582.729 93.4382C583.193 100.765 584.262 108.554 585.939 116.609C587.615 124.663 589.891 132.975 592.485 141.384C593.014 143.099 593.55 144.775 594.09 146.455C594.302 147.116 594.519 147.756 594.732 148.412H605.451C604.911 146.727 604.383 145.082 603.846 143.374C603.327 141.712 602.822 140.051 602.306 138.367C599.772 130.113 597.485 122.082 595.663 114.426C593.84 106.771 592.492 99.4902 591.683 92.6362C591.134 88.0082 590.808 83.5752 590.72 79.4462C590.633 75.3163 590.782 71.4822 591.073 67.9572C591.704 60.2862 593.072 54.1442 594.058 49.8892C594.551 47.7612 594.93 46.0902 595.117 44.9142C595.304 43.7392 595.288 43.0682 594.989 42.9252C594.951 42.9072 594.906 42.8932 594.86 42.8932Z" fill="url(#pk_paint6_linear_1396_734)"/>
<path fill-rule="evenodd" clip-rule="evenodd" d="M542.94 43.6232C542.824 43.6 542.668 43.6441 542.556 43.8155C542.443 43.9868 542.391 44.3167 542.363 44.5461C542.306 44.9517 542.301 45.4781 542.363 46.0843C542.487 47.2825 542.847 48.8929 543.363 50.8142C544.391 54.633 546.124 59.8806 548.208 66.2732C552.323 78.8872 557.909 96.2132 562.244 116.649C564.35 126.583 566.109 137.266 567.32 148.413H579.741C578.424 136.235 576.205 124.632 573.512 113.996C570.848 103.465 567.717 93.8712 564.513 85.3862C561.309 76.9009 558.043 69.5322 555.053 63.4672C552.013 57.2962 549.298 52.5142 547.209 49.1622C546.149 47.4572 545.279 46.1615 544.594 45.2398C544.244 44.7639 543.949 44.4238 543.709 44.163C543.553 43.9232 543.369 43.8896 543.248 43.8169C543.127 43.7444 543.056 43.6479 542.94 43.6247L542.94 43.6232Z" fill="url(#pk_paint7_linear_1396_734)"/>
<path fill-rule="evenodd" clip-rule="evenodd" d="M623.34 66.0432C622.581 66.0432 621.868 68.1767 621.173 71.9588C620.478 75.741 619.786 81.1873 619.11 87.9518C618.433 94.7161 617.79 102.783 617.287 111.786C616.784 120.79 616.436 130.737 616.633 141.227C616.639 141.575 616.66 141.911 616.668 142.259C616.704 144.069 616.768 145.875 616.84 147.658H627.846C627.788 145.794 627.717 143.919 627.674 142.018C627.667 141.679 627.646 141.36 627.639 141.02C627.442 130.793 627.453 120.98 627.399 112.026C627.345 103.073 627.236 94.9794 626.917 88.1574C626.598 81.3354 626.094 75.8114 625.473 71.9924C624.851 68.1734 624.099 66.0432 623.34 66.0432Z" fill="url(#pk_paint8_linear_1396_734)"/>
<path fill-rule="evenodd" clip-rule="evenodd" d="M633.43 74.5432C632.755 74.7523 632.808 77.0411 633.27 80.9938C633.731 84.9466 634.607 90.572 635.516 97.5218C636.425 104.471 637.345 112.761 638.084 122.008C638.734 130.155 639.225 139.074 639.592 148.42H649.862C649.439 138.727 648.645 129.439 647.487 120.981C646.192 111.523 644.472 103.081 642.609 96.1088C640.746 89.1371 638.749 83.6328 637.089 79.9338C635.429 76.2355 634.106 74.3332 633.431 74.5423L633.43 74.5432Z" fill="url(#pk_paint9_linear_1396_734)"/>
<path fill-rule="evenodd" clip-rule="evenodd" d="M580.79 60.4632C580.516 60.4592 580.072 60.8022 579.49 61.5142C578.825 62.3272 577.981 63.6202 577.056 65.3592C576.131 67.0982 575.131 69.2882 574.179 71.9432C573.226 74.5972 572.329 77.7232 571.634 81.2372C570.997 84.4602 570.542 88.0092 570.306 91.8322C570.07 95.6562 570.065 99.7542 570.333 104.032C570.733 110.347 571.655 117.062 573.1 124.004C574.545 130.947 576.507 138.112 578.743 145.36C579.199 146.838 579.661 148.283 580.126 149.731C580.308 150.301 580.496 150.853 580.679 151.418H589.919C589.453 149.966 588.998 148.548 588.536 147.075C588.088 145.643 587.653 144.211 587.208 142.76C585.024 135.645 583.053 128.722 581.482 122.123C579.91 115.525 578.748 109.248 578.051 103.34C577.578 99.3512 577.297 95.5302 577.222 91.9712C577.146 88.4112 577.274 85.1062 577.526 82.0672C578.07 75.4552 579.249 70.1612 580.098 66.4932C580.523 64.6592 580.85 63.2192 581.011 62.2052C581.173 61.1922 581.158 60.6142 580.901 60.4902C580.869 60.4752 580.829 60.4632 580.79 60.4632Z" fill="url(#pk_paint10_linear_1396_734)"/>
<path fill-rule="evenodd" clip-rule="evenodd" d="M605.34 80.4132C604.686 80.4132 604.071 82.2522 603.472 85.5124C602.873 88.7725 602.277 93.4672 601.694 99.2984C601.11 105.129 600.556 112.082 600.122 119.843C599.689 127.605 599.389 136.178 599.559 145.22C599.564 145.521 599.582 145.81 599.589 146.11C599.62 147.67 599.675 149.227 599.737 150.764H609.224C609.174 149.157 609.113 147.541 609.076 145.902C609.07 145.61 609.052 145.335 609.046 145.043C608.875 136.227 608.885 127.769 608.838 120.051C608.792 112.333 608.698 105.357 608.423 99.4756C608.149 93.5951 607.714 88.8336 607.178 85.5416C606.643 82.2497 605.995 80.4132 605.34 80.4132Z" fill="url(#pk_paint11_linear_1396_734)"/>
<path fill-rule="evenodd" clip-rule="evenodd" d="M614.04 87.7332C613.458 87.9134 613.504 89.8863 613.902 93.2934C614.3 96.7006 615.054 101.55 615.838 107.539C616.622 113.53 617.415 120.675 618.051 128.646C618.612 135.669 619.035 143.356 619.351 151.413H628.203C627.839 143.058 627.154 135.052 626.156 127.761C625.04 119.609 623.557 112.332 621.952 106.322C620.346 100.313 618.624 95.5684 617.193 92.3804C615.763 89.1925 614.622 87.553 614.04 87.7332Z" fill="url(#pk_paint12_linear_1396_734)"/>
<path fill-rule="evenodd" clip-rule="evenodd" d="M604.83 66.0932C604.93 66.0732 605.065 66.1112 605.161 66.259C605.258 66.4066 605.304 66.691 605.327 66.8887C605.377 67.2383 605.381 67.6921 605.327 68.2146C605.22 69.2475 604.911 70.6357 604.465 72.2918C603.579 75.5835 602.085 80.1068 600.289 85.6168C596.742 96.4898 591.927 111.425 588.19 129.04C586.375 137.603 584.858 146.811 583.814 156.42H573.108C574.244 145.922 576.157 135.921 578.478 126.753C580.775 117.676 583.473 109.406 586.235 102.091C588.996 94.7767 591.812 88.4258 594.389 83.1968C597.01 77.8776 599.35 73.7553 601.151 70.8658C602.064 69.3961 602.814 68.2793 603.405 67.4848C603.707 67.0747 603.96 66.7815 604.167 66.5567C604.302 66.35 604.461 66.321 604.565 66.2584C604.669 66.1958 604.73 66.1133 604.83 66.0932Z" fill="url(#pk_paint13_linear_1396_734)"/>
<path fill-rule="evenodd" clip-rule="evenodd" d="M650.28 78.6332C650.843 78.8226 650.647 81.1081 649.92 85.0787C649.194 89.0492 647.946 94.7244 646.49 101.732C645.035 108.739 643.377 117.062 642.119 126.352C641.068 134.115 640.3 142.56 640.183 151.415H631.414C631.655 142.013 632.725 133.132 634.208 125.08C635.971 115.506 638.281 107.074 640.543 100.128C642.804 93.182 645.012 87.7407 646.739 84.0557C648.466 80.3702 649.717 78.4438 650.28 78.6332Z" fill="url(#pk_paint14_linear_1396_734)"/>
<path fill-rule="evenodd" clip-rule="evenodd" d="M561.7 77.4132C561.045 77.4132 560.431 79.2522 559.832 82.5124C559.233 85.7725 558.637 90.4672 558.054 96.2984C557.47 102.129 556.916 109.082 556.482 116.843C556.049 124.605 555.749 133.178 555.919 142.22C555.924 142.521 555.942 142.81 555.949 143.11C555.98 144.67 556.035 146.227 556.097 147.764H565.584C565.534 146.157 565.473 144.541 565.435 142.902C565.429 142.61 565.411 142.335 565.406 142.043C565.235 133.227 565.245 124.769 565.198 117.051C565.152 109.333 565.058 102.357 564.783 96.4756C564.508 90.5951 564.074 85.8336 563.538 82.5416C563.002 79.2497 562.355 77.4132 561.7 77.4132Z" fill="url(#pk_paint15_linear_1396_734)"/>
<path fill-rule="evenodd" clip-rule="evenodd" d="M39.3339 157.703C39.3599 155.736 39.3699 153.767 39.3339 151.765C39.3069 150.36 39.2389 148.936 39.1779 147.515C38.8019 138.791 37.7649 130.407 35.9909 122.734C34.2169 115.061 31.7209 108.092 28.678 102.015C25.9001 96.3752 22.6772 91.5032 19.428 87.4842C16.1788 83.4652 12.8913 80.3062 9.99048 77.8282C3.43338 73.4542 -0.322519 70.4542 0.0217807 69.6092C0.385871 68.7752 4.87268 70.2062 12.6468 73.5472C16.2154 75.6322 20.2936 78.6242 24.3968 82.6722C28.5 86.7192 32.6059 91.8512 36.1778 97.9842C39.9378 104.52 43.0798 112.099 45.3028 120.422C47.5258 128.744 48.8438 137.796 49.2088 147.109C49.2688 148.625 49.2908 150.146 49.3028 151.64C49.3228 153.689 49.2918 155.696 49.2408 157.703H39.3339Z" fill="#2D5603"/>
<path fill-rule="evenodd" clip-rule="evenodd" d="M71.9239 157.703C72.1356 155.755 72.3715 153.803 72.5489 151.829C73.6003 140.124 73.9341 128.761 73.6321 118.039C73.2824 105.486 72.0457 93.7942 70.3823 83.3742C68.7189 72.9552 66.6444 63.8292 64.7159 56.2512C62.7876 48.6732 61.0396 42.6392 59.9662 38.4182C58.8928 34.1982 58.4875 31.7812 59.1746 31.4602C59.8617 31.1402 61.5692 32.9452 63.9243 36.7102C66.2794 40.4752 69.2999 46.2122 72.3822 53.7092C75.4645 61.2062 78.5795 70.4842 81.1318 81.2492C83.6841 92.0152 85.6442 104.263 86.4231 117.497C87.0842 128.779 86.9376 140.756 85.8398 153.037C85.6995 154.606 85.5494 156.151 85.3815 157.703H71.9239Z" fill="#2D5603"/>
<path fill-rule="evenodd" clip-rule="evenodd" d="M100.334 157.703C103.004 149.465 105.764 141.618 108.303 134.265C111.038 126.343 113.51 118.953 115.522 112.171C116.695 108.209 117.721 104.467 118.553 100.983C119.384 97.4997 120.014 94.2779 120.49 91.327C120.957 88.4114 121.26 85.7626 121.459 83.452C121.658 81.1414 121.742 79.1764 121.803 77.5458C121.864 75.9152 121.922 74.6208 122.022 73.7333C122.121 72.8459 122.278 72.3576 122.553 72.2958C122.828 72.234 123.214 72.6073 123.647 73.4208C124.079 74.2343 124.569 75.5013 125.022 77.1708C125.475 78.8403 125.873 80.9172 126.147 83.3896C126.42 85.862 126.541 88.7081 126.459 91.8584C126.381 95.0422 126.119 98.5473 125.615 102.296C125.112 106.045 124.382 110.059 123.459 114.234C121.885 121.371 119.777 129.089 117.303 137.203C115.296 143.783 113.027 150.663 110.772 157.703L100.334 157.703Z" fill="#2D5603"/>
<path fill-rule="evenodd" clip-rule="evenodd" d="M144.02 157.703C144.078 156.228 144.156 154.771 144.208 153.278C144.214 153.131 144.203 152.976 144.208 152.828C144.631 140.225 144.831 128.2 145.07 117.203C145.309 106.206 145.611 96.2392 146.045 87.8782C146.479 79.5179 147.04 72.7592 147.733 68.0782C148.425 63.3974 149.23 60.8033 150.058 60.8033C150.886 60.8033 151.677 63.3817 152.42 68.0407C153.163 72.6997 153.868 79.4287 154.52 87.7657C155.172 96.1024 155.765 106.058 156.133 117.128C156.5 128.198 156.634 140.399 156.208 153.24C156.203 153.39 156.213 153.539 156.208 153.69C156.162 155.042 156.078 156.363 156.02 157.702H144.02L144.02 157.703Z" fill="#2D5603"/>
<path fill-rule="evenodd" clip-rule="evenodd" d="M175.43 157.703C175.683 151.394 176.221 145.341 177.051 139.798C178.056 133.081 179.469 127.104 181.038 122.227C182.607 117.35 184.307 113.566 185.721 111.062C187.134 108.557 188.235 107.325 188.756 107.537C189.278 107.75 189.174 109.391 188.705 112.142C188.236 114.894 187.435 118.764 186.647 123.59C185.859 128.416 185.101 134.192 184.563 140.672C184.126 145.934 183.849 151.682 183.662 157.703H175.43Z" fill="#2D5603"/>
<path fill-rule="evenodd" clip-rule="evenodd" d="M280.3 55.6632C279.99 55.6583 279.489 56.0472 278.832 56.8512C278.081 57.7692 277.127 59.2302 276.082 61.1952C275.036 63.1592 273.907 65.6332 272.832 68.6322C271.756 71.6312 270.742 75.1622 269.957 79.1322C269.237 82.7732 268.723 86.7822 268.457 91.1012C268.19 95.4202 268.185 100.05 268.488 104.882C268.939 112.017 269.981 119.602 271.613 127.445C273.245 135.288 275.461 143.382 277.988 151.57C278.503 153.239 279.025 154.871 279.55 156.507C279.756 157.151 279.968 157.774 280.175 158.413H290.613C290.087 156.772 289.573 155.171 289.05 153.507C288.545 151.889 288.053 150.271 287.55 148.632C285.083 140.594 282.856 132.774 281.082 125.32C279.307 117.865 277.994 110.775 277.207 104.101C276.672 99.5952 276.354 95.2782 276.269 91.2572C276.184 87.2361 276.329 83.5022 276.613 80.0702C277.227 72.6002 278.559 66.6202 279.519 62.4762C279.999 60.4042 280.368 58.7772 280.55 57.6322C280.733 56.4872 280.716 55.8342 280.425 55.6952C280.389 55.6772 280.345 55.6642 280.3 55.6632Z" fill="url(#pk_paint16_linear_1396_734)"/>
<path fill-rule="evenodd" clip-rule="evenodd" d="M229.75 56.3832C229.637 56.3606 229.485 56.4036 229.375 56.5704C229.266 56.7373 229.215 57.0585 229.188 57.2819C229.132 57.6768 229.127 58.1894 229.188 58.7797C229.309 59.9465 229.659 61.5147 230.162 63.3855C231.163 67.1041 232.85 72.2139 234.88 78.4385C238.886 90.7215 244.326 107.592 248.548 127.492C250.598 137.166 252.312 147.567 253.491 158.422H265.586C264.303 146.563 262.142 135.265 259.52 124.908C256.925 114.654 253.877 105.311 250.757 97.0495C247.637 88.787 244.457 81.6125 241.546 75.7055C238.585 69.6966 235.942 65.0395 233.907 61.7755C232.875 60.1153 232.028 58.8536 231.361 57.956C231.02 57.4926 230.733 57.1614 230.499 56.9075C230.348 56.6739 230.168 56.6412 230.05 56.5704C229.932 56.4997 229.863 56.4058 229.75 56.3832Z" fill="url(#pk_paint17_linear_1396_734)"/>
<path fill-rule="evenodd" clip-rule="evenodd" d="M207.77 76.2032C207.134 76.4172 207.355 78.999 208.176 83.4844C208.997 87.9698 210.407 94.3804 212.051 102.296C213.696 110.212 215.568 119.613 216.989 130.108C218.176 138.879 219.044 148.418 219.176 158.42H229.082C228.81 147.799 227.602 137.766 225.926 128.67C223.934 117.855 221.325 108.329 218.77 100.482C216.215 92.636 213.721 86.4894 211.77 82.3264C209.819 78.163 208.406 75.9874 207.77 76.2014L207.77 76.2032Z" fill="url(#pk_paint18_linear_1396_734)"/>
<path fill-rule="evenodd" clip-rule="evenodd" d="M308.03 78.2132C307.291 78.2132 306.597 80.2906 305.92 83.9736C305.244 87.6565 304.57 92.9599 303.911 99.5466C303.252 106.133 302.625 113.988 302.136 122.756C301.646 131.523 301.307 141.21 301.499 151.424C301.505 151.763 301.525 152.09 301.533 152.428C301.568 154.191 301.631 155.95 301.7 157.686H312.417C312.361 155.871 312.292 154.045 312.25 152.194C312.243 151.864 312.223 151.553 312.216 151.223C312.024 141.264 312.035 131.709 311.982 122.991C311.929 114.272 311.824 106.392 311.513 99.7487C311.203 93.1058 310.712 87.7266 310.107 84.0086C309.501 80.2899 308.77 78.2148 308.03 78.2148L308.03 78.2132Z" fill="url(#pk_paint19_linear_1396_734)"/>
<path fill-rule="evenodd" clip-rule="evenodd" d="M317.87 86.4832C317.213 86.6868 317.264 88.9155 317.714 92.7644C318.164 96.6134 319.016 102.091 319.901 108.858C320.787 115.625 321.682 123.697 322.401 132.702C323.035 140.636 323.512 149.32 323.87 158.421H333.87C333.459 148.983 332.685 139.938 331.558 131.702C330.297 122.493 328.621 114.272 326.808 107.483C324.994 100.695 323.049 95.3344 321.433 91.7334C319.816 88.1322 318.527 86.2796 317.87 86.4832Z" fill="url(#pk_paint20_linear_1396_734)"/>
<path fill-rule="evenodd" clip-rule="evenodd" d="M39.3339 157.703C39.3599 155.736 39.3699 153.767 39.3339 151.765C39.3069 150.36 39.2389 148.936 39.1779 147.515C38.8019 138.791 37.7649 130.407 35.9909 122.734C34.2169 115.061 31.7209 108.092 28.678 102.015C25.9001 96.3752 22.6772 91.5032 19.428 87.4842C16.1788 83.4652 12.8913 80.3062 9.99048 77.8282C3.43338 73.4542 -0.322519 70.4542 0.0217807 69.6092C0.385871 68.7752 4.87268 70.2062 12.6468 73.5472C16.2154 75.6322 20.2936 78.6242 24.3968 82.6722C28.5 86.7192 32.6059 91.8512 36.1778 97.9842C39.9378 104.52 43.0798 112.099 45.3028 120.422C47.5258 128.744 48.8438 137.796 49.2088 147.109C49.2688 148.625 49.2908 150.146 49.3028 151.64C49.3228 153.689 49.2918 155.696 49.2408 157.703H39.3339Z" fill="url(#pk_paint21_linear_1396_734)"/>
<path fill-rule="evenodd" clip-rule="evenodd" d="M71.9239 157.703C72.1356 155.755 72.3715 153.803 72.5489 151.829C73.6003 140.124 73.9341 128.761 73.6321 118.039C73.2824 105.486 72.0457 93.7942 70.3823 83.3742C68.7189 72.9552 66.6444 63.8292 64.7159 56.2512C62.7876 48.6732 61.0396 42.6392 59.9662 38.4182C58.8928 34.1982 58.4875 31.7812 59.1746 31.4602C59.8617 31.1402 61.5692 32.9452 63.9243 36.7102C66.2794 40.4752 69.2999 46.2122 72.3822 53.7092C75.4645 61.2062 78.5795 70.4842 81.1318 81.2492C83.6841 92.0152 85.6442 104.263 86.4231 117.497C87.0842 128.779 86.9376 140.756 85.8398 153.037C85.6995 154.606 85.5494 156.151 85.3815 157.703H71.9239Z" fill="url(#pk_paint22_linear_1396_734)"/>
<path fill-rule="evenodd" clip-rule="evenodd" d="M100.334 157.703C103.004 149.465 105.764 141.618 108.303 134.265C111.038 126.343 113.51 118.953 115.522 112.171C116.695 108.209 117.721 104.467 118.553 100.983C119.384 97.4997 120.014 94.2779 120.49 91.327C120.957 88.4114 121.26 85.7626 121.459 83.452C121.658 81.1414 121.742 79.1764 121.803 77.5458C121.864 75.9152 121.922 74.6208 122.022 73.7333C122.121 72.8459 122.278 72.3576 122.553 72.2958C122.828 72.234 123.214 72.6073 123.647 73.4208C124.079 74.2343 124.569 75.5013 125.022 77.1708C125.475 78.8403 125.873 80.9172 126.147 83.3896C126.42 85.862 126.541 88.7081 126.459 91.8584C126.381 95.0422 126.119 98.5473 125.615 102.296C125.112 106.045 124.382 110.059 123.459 114.234C121.885 121.371 119.777 129.089 117.303 137.203C115.296 143.783 113.027 150.663 110.772 157.703L100.334 157.703Z" fill="url(#pk_paint23_linear_1396_734)"/>
<path fill-rule="evenodd" clip-rule="evenodd" d="M144.02 157.703C144.078 156.228 144.156 154.771 144.208 153.278C144.214 153.131 144.203 152.976 144.208 152.828C144.631 140.225 144.831 128.2 145.07 117.203C145.309 106.206 145.611 96.2392 146.045 87.8782C146.479 79.5179 147.04 72.7592 147.733 68.0782C148.425 63.3974 149.23 60.8033 150.058 60.8033C150.886 60.8033 151.677 63.3817 152.42 68.0407C153.163 72.6997 153.868 79.4287 154.52 87.7657C155.172 96.1024 155.765 106.058 156.133 117.128C156.5 128.198 156.634 140.399 156.208 153.24C156.203 153.39 156.213 153.539 156.208 153.69C156.162 155.042 156.078 156.363 156.02 157.702H144.02L144.02 157.703Z" fill="url(#pk_paint24_linear_1396_734)"/>
<path fill-rule="evenodd" clip-rule="evenodd" d="M175.43 157.703C175.683 151.394 176.221 145.341 177.051 139.798C178.056 133.081 179.469 127.104 181.038 122.227C182.607 117.35 184.307 113.566 185.721 111.062C187.134 108.557 188.235 107.325 188.756 107.537C189.278 107.75 189.174 109.391 188.705 112.142C188.236 114.894 187.435 118.764 186.647 123.59C185.859 128.416 185.101 134.192 184.563 140.672C184.126 145.934 183.849 151.682 183.662 157.703H175.43Z" fill="#2D5603"/>
<path fill-rule="evenodd" clip-rule="evenodd" d="M280.3 55.6632C279.99 55.6583 279.489 56.0472 278.832 56.8512C278.081 57.7692 277.127 59.2302 276.082 61.1952C275.036 63.1592 273.907 65.6332 272.832 68.6322C271.756 71.6312 270.742 75.1622 269.957 79.1322C269.237 82.7732 268.723 86.7822 268.457 91.1012C268.19 95.4202 268.185 100.05 268.488 104.882C268.939 112.017 269.981 119.602 271.613 127.445C273.245 135.288 275.461 143.382 277.988 151.57C278.503 153.239 279.025 154.871 279.55 156.507C279.756 157.151 279.968 157.774 280.175 158.413H290.613C290.087 156.772 289.573 155.171 289.05 153.507C288.545 151.889 288.053 150.271 287.55 148.632C285.083 140.594 282.856 132.774 281.082 125.32C279.307 117.865 277.994 110.775 277.207 104.101C276.672 99.5952 276.354 95.2782 276.269 91.2572C276.184 87.2361 276.329 83.5022 276.613 80.0702C277.227 72.6002 278.559 66.6202 279.519 62.4762C279.999 60.4042 280.368 58.7772 280.55 57.6322C280.733 56.4872 280.716 55.8342 280.425 55.6952C280.389 55.6772 280.345 55.6642 280.3 55.6632Z" fill="url(#pk_paint25_linear_1396_734)"/>
<path fill-rule="evenodd" clip-rule="evenodd" d="M229.75 56.3832C229.637 56.3606 229.485 56.4036 229.375 56.5704C229.266 56.7373 229.215 57.0585 229.188 57.2819C229.132 57.6768 229.127 58.1894 229.188 58.7797C229.309 59.9465 229.659 61.5147 230.162 63.3855C231.163 67.1041 232.85 72.2139 234.88 78.4385C238.886 90.7215 244.326 107.592 248.548 127.492C250.598 137.166 252.312 147.567 253.491 158.422H265.586C264.303 146.563 262.142 135.265 259.52 124.908C256.925 114.654 253.877 105.311 250.757 97.0495C247.637 88.787 244.457 81.6125 241.546 75.7055C238.585 69.6966 235.942 65.0395 233.907 61.7755C232.875 60.1153 232.028 58.8536 231.361 57.956C231.02 57.4926 230.733 57.1614 230.499 56.9075C230.348 56.6739 230.168 56.6412 230.05 56.5704C229.932 56.4997 229.863 56.4058 229.75 56.3832Z" fill="url(#pk_paint26_linear_1396_734)"/>
<path fill-rule="evenodd" clip-rule="evenodd" d="M207.77 76.2032C207.134 76.4172 207.355 78.999 208.176 83.4844C208.997 87.9698 210.407 94.3804 212.051 102.296C213.696 110.212 215.568 119.613 216.989 130.108C218.176 138.879 219.044 148.418 219.176 158.42H229.082C228.81 147.799 227.602 137.766 225.926 128.67C223.934 117.855 221.325 108.329 218.77 100.482C216.215 92.636 213.721 86.4894 211.77 82.3264C209.819 78.163 208.406 75.9874 207.77 76.2014L207.77 76.2032Z" fill="url(#pk_paint27_linear_1396_734)"/>
<path fill-rule="evenodd" clip-rule="evenodd" d="M308.03 78.2132C307.291 78.2132 306.597 80.2906 305.92 83.9736C305.244 87.6565 304.57 92.9599 303.911 99.5466C303.252 106.133 302.625 113.988 302.136 122.756C301.646 131.523 301.307 141.21 301.499 151.424C301.505 151.763 301.525 152.09 301.533 152.428C301.568 154.191 301.631 155.95 301.7 157.686H312.417C312.361 155.871 312.292 154.045 312.25 152.194C312.243 151.864 312.223 151.553 312.216 151.223C312.024 141.264 312.035 131.709 311.982 122.991C311.929 114.272 311.824 106.392 311.513 99.7487C311.203 93.1058 310.712 87.7266 310.107 84.0086C309.501 80.2899 308.77 78.2148 308.03 78.2148L308.03 78.2132Z" fill="url(#pk_paint28_linear_1396_734)"/>
<path fill-rule="evenodd" clip-rule="evenodd" d="M317.87 86.4832C317.213 86.6868 317.264 88.9155 317.714 92.7644C318.164 96.6134 319.016 102.091 319.901 108.858C320.787 115.625 321.682 123.697 322.401 132.702C323.035 140.636 323.512 149.32 323.87 158.421H333.87C333.459 148.983 332.685 139.938 331.558 131.702C330.297 122.493 328.621 114.272 326.808 107.483C324.994 100.695 323.049 95.3344 321.433 91.7334C319.816 88.1322 318.527 86.2796 317.87 86.4832Z" fill="url(#pk_paint29_linear_1396_734)"/>
<path fill-rule="evenodd" clip-rule="evenodd" d="M47.3951 147.683C47.4211 145.663 47.4311 143.641 47.3951 141.585C47.3671 140.142 47.2971 138.679 47.2341 137.22C46.8481 128.261 45.7831 119.651 43.9611 111.771C42.1391 103.891 39.5761 96.7352 36.4511 90.4942C33.5981 84.7012 30.2888 79.6982 26.952 75.5712C23.6152 71.4442 20.239 68.2002 17.2601 65.6542C10.5261 61.1622 6.66905 58.0822 7.02205 57.2142C7.39595 56.3572 12.0037 57.8272 19.9871 61.2582C23.652 63.4002 27.84 66.4722 32.0541 70.6292C36.2671 74.7852 40.4841 80.0562 44.1521 86.3542C48.0141 93.0662 51.2401 100.849 53.5231 109.396C55.8061 117.943 57.1601 127.239 57.5351 136.803C57.5961 138.361 57.6191 139.922 57.6311 141.457C57.6511 143.56 57.6201 145.621 57.5671 147.683H47.3941H47.3951Z" fill="url(#pk_paint30_linear_1396_734)"/>
<path fill-rule="evenodd" clip-rule="evenodd" d="M80.862 147.683C81.0793 145.682 81.3216 143.678 81.5038 141.65C82.5836 129.63 82.9264 117.961 82.6163 106.949C82.2571 94.0582 80.9871 82.0502 79.2789 71.3502C77.5707 60.6502 75.4402 51.2782 73.4598 43.4952C71.4794 35.713 69.6844 29.5172 68.582 25.1822C67.4796 20.8476 67.0634 18.3659 67.769 18.0366C68.4746 17.7074 70.2282 19.5614 72.6468 23.4279C75.0654 27.2945 78.1673 33.1861 81.3327 40.8849C84.4981 48.5839 87.6969 58.1119 90.3181 69.1669C92.9392 80.2229 94.9522 92.8009 95.7521 106.392C96.431 117.978 96.2805 130.277 95.1531 142.89C95.009 144.502 94.8549 146.088 94.6824 147.682H80.8624L80.862 147.683Z" fill="url(#pk_paint31_linear_1396_734)"/>
<path fill-rule="evenodd" clip-rule="evenodd" d="M110.039 147.683C112.781 139.222 115.616 131.164 118.223 123.614C121.032 115.478 123.57 107.889 125.636 100.925C126.841 96.8561 127.895 93.0135 128.749 89.4362C129.603 85.8588 130.249 82.5502 130.739 79.5196C131.218 76.5254 131.53 73.8051 131.734 71.4323C131.937 69.0594 132.024 67.0414 132.087 65.3668C132.149 63.6922 132.209 62.3629 132.311 61.4515C132.414 60.5401 132.575 60.0387 132.857 59.9752C133.139 59.9117 133.536 60.2951 133.98 61.1305C134.424 61.9659 134.927 63.2671 135.392 64.9816C135.857 66.6961 136.266 68.829 136.547 71.368C136.829 73.907 136.952 76.8299 136.868 80.065C136.788 83.3346 136.519 86.9343 136.002 90.784C135.484 94.6336 134.736 98.7557 133.787 103.043C132.171 110.372 130.006 118.298 127.465 126.631C125.404 133.388 123.074 140.454 120.758 147.684L110.039 147.683Z" fill="url(#pk_paint32_linear_1396_734)"/>
<path fill-rule="evenodd" clip-rule="evenodd" d="M154.9 147.683C154.96 146.168 155.04 144.672 155.093 143.138C155.099 142.987 155.088 142.828 155.093 142.676C155.527 129.733 155.733 117.385 155.979 106.091C156.224 94.7982 156.534 84.5622 156.98 75.9762C157.425 67.3902 158.001 60.4492 158.713 55.6422C159.424 50.8352 160.25 48.1712 161.1 48.1712C161.951 48.1712 162.764 50.8192 163.527 55.6042C164.29 60.3882 165.014 67.2992 165.683 75.8602C166.353 84.4222 166.962 94.6462 167.339 106.014C167.717 117.383 167.854 129.913 167.416 143.1C167.411 143.254 167.421 143.408 167.416 143.562C167.37 144.951 167.284 146.307 167.224 147.683H154.9Z" fill="#2D5603"/>
<path fill-rule="evenodd" clip-rule="evenodd" d="M187.16 147.683C187.42 141.204 187.973 134.988 188.825 129.295C189.857 122.397 191.308 116.259 192.92 111.25C194.531 106.242 196.276 102.356 197.728 99.7842C199.18 97.2122 200.31 95.9462 200.845 96.1652C201.381 96.3832 201.274 98.0682 200.793 100.894C200.311 103.72 199.488 107.695 198.679 112.65C197.87 117.606 197.092 123.538 196.539 130.193C196.09 135.596 195.806 141.5 195.614 147.683H187.16Z" fill="#2D5603"/>
<path fill-rule="evenodd" clip-rule="evenodd" d="M294.86 42.8932C294.542 42.8882 294.027 43.2871 293.352 44.1122C292.581 45.0552 291.601 46.5552 290.528 48.5732C289.455 50.5912 288.295 53.1312 287.19 56.2112C286.085 59.2912 285.045 62.9172 284.238 66.9942C283.499 70.7332 282.971 74.8502 282.697 79.2852C282.423 83.7212 282.418 88.4752 282.729 93.4382C283.193 100.765 284.262 108.554 285.939 116.609C287.615 124.663 289.891 132.975 292.485 141.384C293.014 143.099 293.55 144.775 294.09 146.455C294.302 147.116 294.519 147.756 294.732 148.412H305.451C304.911 146.727 304.383 145.082 303.846 143.374C303.327 141.712 302.822 140.051 302.306 138.367C299.772 130.113 297.485 122.082 295.663 114.426C293.84 106.771 292.492 99.4902 291.683 92.6362C291.134 88.0082 290.808 83.5752 290.72 79.4462C290.633 75.3163 290.782 71.4822 291.073 67.9572C291.704 60.2862 293.072 54.1442 294.058 49.8892C294.551 47.7612 294.93 46.0902 295.117 44.9142C295.304 43.7392 295.288 43.0682 294.989 42.9252C294.951 42.9072 294.906 42.8932 294.86 42.8932Z" fill="url(#pk_paint33_linear_1396_734)"/>
<path fill-rule="evenodd" clip-rule="evenodd" d="M242.94 43.6232C242.824 43.6 242.668 43.6441 242.556 43.8155C242.443 43.9868 242.391 44.3167 242.363 44.5461C242.306 44.9517 242.301 45.4781 242.363 46.0843C242.487 47.2825 242.847 48.8929 243.363 50.8142C244.391 54.633 246.124 59.8806 248.208 66.2732C252.323 78.8872 257.909 96.2132 262.244 116.649C264.35 126.583 266.109 137.266 267.32 148.413H279.741C278.424 136.235 276.205 124.632 273.512 113.996C270.848 103.465 267.717 93.8712 264.513 85.3862C261.309 76.9009 258.043 69.5322 255.053 63.4672C252.013 57.2962 249.298 52.5142 247.209 49.1622C246.149 47.4572 245.279 46.1615 244.594 45.2398C244.243 44.7639 243.949 44.4238 243.709 44.163C243.553 43.9232 243.369 43.8896 243.248 43.8169C243.127 43.7444 243.056 43.6479 242.94 43.6247L242.94 43.6232Z" fill="url(#pk_paint34_linear_1396_734)"/>
<path fill-rule="evenodd" clip-rule="evenodd" d="M220.37 63.9832C219.717 64.2029 219.944 66.8544 220.787 71.4607C221.63 76.067 223.078 82.6507 224.767 90.7807C226.455 98.9102 228.378 108.565 229.837 119.343C231.057 128.35 231.948 138.146 232.084 148.419H242.257C241.977 137.512 240.736 127.208 239.015 117.867C236.969 106.761 234.29 96.9767 231.666 88.9197C229.042 80.8618 226.481 74.5497 224.478 70.2737C222.474 65.9981 221.023 63.7635 220.37 63.9832Z" fill="url(#pk_paint35_linear_1396_734)"/>
<path fill-rule="evenodd" clip-rule="evenodd" d="M323.34 66.0432C322.581 66.0432 321.868 68.1767 321.173 71.9588C320.478 75.741 319.786 81.1873 319.11 87.9518C318.433 94.7161 317.79 102.783 317.287 111.786C316.784 120.79 316.436 130.737 316.633 141.227C316.639 141.575 316.66 141.911 316.668 142.259C316.704 144.069 316.768 145.875 316.84 147.658H327.846C327.788 145.794 327.717 143.919 327.674 142.018C327.667 141.679 327.646 141.36 327.639 141.02C327.442 130.793 327.453 120.98 327.399 112.026C327.345 103.073 327.236 94.9794 326.917 88.1574C326.598 81.3354 326.094 75.8114 325.473 71.9924C324.851 68.1734 324.099 66.0432 323.34 66.0432Z" fill="url(#pk_paint36_linear_1396_734)"/>
<path fill-rule="evenodd" clip-rule="evenodd" d="M333.43 74.5432C332.755 74.7523 332.808 77.0411 333.27 80.9938C333.732 84.9466 334.607 90.572 335.516 97.5218C336.426 104.471 337.345 112.761 338.084 122.008C338.734 130.155 339.225 139.074 339.592 148.42H349.862C349.439 138.727 348.645 129.439 347.487 120.981C346.192 111.523 344.472 103.081 342.609 96.1088C340.746 89.1371 338.749 83.6328 337.089 79.9338C335.429 76.2355 334.105 74.3332 333.431 74.5423L333.43 74.5432Z" fill="url(#pk_paint37_linear_1396_734)"/>
<path fill-rule="evenodd" clip-rule="evenodd" d="M67.4809 150.783C67.5039 149.041 67.5119 147.299 67.4809 145.527C67.4569 144.282 67.3969 143.022 67.3419 141.764C67.0089 134.042 66.0909 126.62 64.5209 119.828C62.9499 113.035 60.7409 106.867 58.0479 101.487C55.5889 96.4942 52.7359 92.1822 49.8589 88.6242C46.9829 85.0662 44.0729 82.2703 41.5049 80.0762C35.7009 76.2042 32.3759 73.5492 32.6809 72.8012C33.0029 72.0623 36.9749 73.3292 43.8569 76.2862C47.0159 78.1322 50.6259 80.7812 54.2579 84.3642C57.8899 87.9472 61.5249 92.4902 64.6869 97.9192C68.0149 103.704 70.7969 110.413 72.7639 117.781C74.7319 125.148 75.8989 133.161 76.2219 141.405C76.2749 142.747 76.2949 144.093 76.3049 145.416C76.3219 147.229 76.2949 149.006 76.2499 150.783H67.4809Z" fill="url(#pk_paint38_linear_1396_734)"/>
<path fill-rule="evenodd" clip-rule="evenodd" d="M96.3289 150.783C96.5163 149.058 96.7251 147.331 96.8821 145.583C97.8129 135.222 98.1083 125.163 97.8411 115.672C97.5314 104.56 96.4367 94.2098 94.9643 84.9858C93.4919 75.7622 91.6554 67.6838 89.9483 60.9758C88.2413 54.2677 86.694 48.9268 85.7438 45.1898C84.7935 41.4535 84.4348 39.3144 85.043 39.0306C85.6512 38.7468 87.1628 40.3448 89.2475 43.6777C91.3323 47.0106 94.006 52.0891 96.7345 58.7257C99.463 65.3621 102.22 73.5747 104.48 83.1047C106.739 92.6345 108.474 103.477 109.164 115.192C109.749 125.179 109.619 135.781 108.647 146.652C108.523 148.041 108.39 149.408 108.242 150.783L96.3289 150.783Z" fill="url(#pk_paint39_linear_1396_734)"/>
<path fill-rule="evenodd" clip-rule="evenodd" d="M121.479 150.783C123.843 143.49 126.286 136.544 128.533 130.036C130.954 123.023 133.142 116.481 134.923 110.478C135.962 106.971 136.87 103.658 137.606 100.575C138.342 97.4912 138.9 94.6393 139.321 92.0271C139.734 89.4462 140.003 87.1013 140.179 85.056C140.355 83.0106 140.43 81.2711 140.483 79.8277C140.537 78.3843 140.589 77.2384 140.677 76.4528C140.765 75.6672 140.904 75.235 141.147 75.1803C141.39 75.1256 141.732 75.4561 142.115 76.1762C142.498 76.8963 142.931 78.0179 143.333 79.4957C143.734 80.9736 144.086 82.8121 144.328 85.0006C144.571 87.1891 144.678 89.7087 144.605 92.4972C144.536 95.3156 144.304 98.4184 143.858 101.737C143.412 105.055 142.767 108.608 141.949 112.304C140.556 118.621 138.69 125.454 136.5 132.636C134.723 138.46 132.715 144.551 130.718 150.783L121.479 150.783Z" fill="url(#pk_paint40_linear_1396_734)"/>
<path fill-rule="evenodd" clip-rule="evenodd" d="M160.15 150.783C160.201 149.477 160.27 148.187 160.316 146.866C160.321 146.735 160.312 146.598 160.316 146.467C160.69 135.311 160.868 124.667 161.079 114.932C161.291 105.197 161.558 96.3742 161.942 88.9732C162.326 81.5722 162.823 75.5892 163.436 71.4462C164.049 67.3022 164.761 65.0062 165.494 65.0062C166.227 65.0062 166.928 67.2882 167.585 71.4132C168.243 75.5372 168.867 81.4942 169.444 88.8732C170.022 96.2532 170.546 105.066 170.872 114.865C171.197 124.665 171.315 135.465 170.938 146.832C170.934 146.966 170.942 147.098 170.938 147.231C170.898 148.428 170.824 149.597 170.772 150.783L160.15 150.783Z" fill="url(#pk_paint41_linear_1396_734)"/>
<path fill-rule="evenodd" clip-rule="evenodd" d="M187.95 150.783C188.174 145.198 188.65 139.84 189.385 134.933C190.275 128.987 191.526 123.696 192.915 119.379C194.303 115.061 195.808 111.712 197.059 109.495C198.311 107.278 199.285 106.187 199.746 106.375C200.208 106.564 200.116 108.016 199.701 110.452C199.286 112.887 198.577 116.314 197.879 120.586C197.182 124.858 196.511 129.971 196.034 135.707C195.648 140.364 195.403 145.453 195.237 150.783H187.95Z" fill="url(#pk_paint42_linear_1396_734)"/>
<path fill-rule="evenodd" clip-rule="evenodd" d="M280.79 60.4632C280.516 60.4592 280.072 60.8022 279.49 61.5142C278.825 62.3272 277.981 63.6202 277.056 65.3592C276.131 67.0982 275.131 69.2882 274.179 71.9432C273.226 74.5972 272.329 77.7232 271.634 81.2372C270.997 84.4602 270.542 88.0092 270.306 91.8322C270.07 95.6562 270.065 99.7542 270.333 104.032C270.733 110.347 271.655 117.062 273.1 124.004C274.545 130.947 276.507 138.112 278.743 145.36C279.199 146.838 279.661 148.283 280.126 149.731C280.308 150.301 280.496 150.853 280.679 151.418H289.919C289.453 149.966 288.998 148.548 288.536 147.075C288.088 145.643 287.653 144.211 287.208 142.76C285.024 135.645 283.053 128.722 281.482 122.123C279.91 115.525 278.748 109.248 278.051 103.34C277.578 99.3512 277.297 95.5302 277.222 91.9712C277.146 88.4112 277.274 85.1062 277.526 82.0672C278.07 75.4552 279.249 70.1612 280.099 66.4932C280.523 64.6592 280.85 63.2192 281.011 62.2052C281.173 61.1922 281.158 60.6142 280.901 60.4902C280.869 60.4752 280.829 60.4632 280.79 60.4632Z" fill="url(#pk_paint43_linear_1396_734)"/>
<path fill-rule="evenodd" clip-rule="evenodd" d="M236.04 61.0932C235.94 61.0732 235.805 61.1112 235.709 61.259C235.612 61.4066 235.566 61.691 235.543 61.8887C235.493 62.2383 235.489 62.6921 235.543 63.2146C235.649 64.2475 235.959 65.6357 236.405 67.2918C237.291 70.5835 238.785 75.1068 240.581 80.6168C244.128 91.4898 248.943 106.425 252.68 124.04C254.495 132.603 256.012 141.811 257.056 151.42H267.762C266.626 140.922 264.713 130.921 262.392 121.753C260.095 112.676 257.397 104.406 254.635 97.0908C251.873 89.7767 249.058 83.4258 246.481 78.1968C243.86 72.8776 241.52 68.7553 239.719 65.8658C238.806 64.3961 238.056 63.2793 237.465 62.4848C237.163 62.0747 236.91 61.7815 236.703 61.5567C236.568 61.35 236.409 61.321 236.305 61.2584C236.201 61.1958 236.14 61.1133 236.04 61.0932Z" fill="url(#pk_paint44_linear_1396_734)"/>
<path fill-rule="evenodd" clip-rule="evenodd" d="M216.58 78.6332C216.017 78.8226 216.213 81.1081 216.94 85.0787C217.666 89.0492 218.914 94.7244 220.37 101.732C221.825 108.739 223.483 117.062 224.741 126.352C225.792 134.115 226.56 142.56 226.677 151.415H235.446C235.205 142.013 234.135 133.132 232.652 125.08C230.889 115.506 228.579 107.074 226.317 100.128C224.056 93.182 221.848 87.7407 220.121 84.0557C218.394 80.3702 217.143 78.4438 216.58 78.6332Z" fill="url(#pk_paint45_linear_1396_734)"/>
<path fill-rule="evenodd" clip-rule="evenodd" d="M305.34 80.4132C304.686 80.4132 304.071 82.2522 303.472 85.5124C302.873 88.7725 302.277 93.4672 301.694 99.2984C301.11 105.129 300.556 112.082 300.122 119.843C299.689 127.605 299.389 136.178 299.559 145.22C299.564 145.521 299.582 145.81 299.589 146.11C299.62 147.67 299.675 149.227 299.737 150.764H309.224C309.174 149.157 309.113 147.541 309.076 145.902C309.07 145.61 309.052 145.335 309.046 145.043C308.875 136.227 308.885 127.769 308.838 120.051C308.792 112.333 308.698 105.357 308.423 99.4756C308.149 93.5951 307.714 88.8336 307.178 85.5416C306.642 82.2497 305.995 80.4132 305.34 80.4132Z" fill="url(#pk_paint46_linear_1396_734)"/>
<path fill-rule="evenodd" clip-rule="evenodd" d="M314.04 87.7332C313.458 87.9134 313.504 89.8863 313.902 93.2934C314.3 96.7006 315.054 101.55 315.838 107.539C316.622 113.53 317.415 120.675 318.051 128.646C318.612 135.669 319.035 143.356 319.351 151.413H328.203C327.839 143.058 327.154 135.052 326.156 127.761C325.04 119.609 323.557 112.332 321.951 106.322C320.346 100.313 318.624 95.5684 317.193 92.3804C315.763 89.1925 314.622 87.553 314.04 87.7332Z" fill="url(#pk_paint47_linear_1396_734)"/>
<path fill-rule="evenodd" clip-rule="evenodd" d="M210.54 150.783C210.353 149.058 210.144 147.331 209.987 145.583C209.056 135.222 208.761 125.163 209.028 115.672C209.338 104.56 210.432 94.2098 211.905 84.9858C213.377 75.7622 215.214 67.6838 216.921 60.9758C218.628 54.2677 220.175 48.9268 221.125 45.1898C222.075 41.4535 222.434 39.3144 221.826 39.0306C221.218 38.7468 219.706 40.3448 217.621 43.6777C215.537 47.0106 212.863 52.0891 210.134 58.7257C207.406 65.3621 204.649 73.5747 202.389 83.1047C200.13 92.6345 198.395 103.477 197.705 115.192C197.12 125.179 197.25 135.781 198.222 146.652C198.346 148.041 198.479 149.408 198.627 150.783L210.54 150.783Z" fill="url(#pk_paint48_linear_1396_734)"/>
<path fill-rule="evenodd" clip-rule="evenodd" d="M175.08 60.4632C175.354 60.4592 175.798 60.8022 176.38 61.5142C177.045 62.3272 177.889 63.6202 178.814 65.3592C179.739 67.0982 180.739 69.2882 181.691 71.9432C182.644 74.5972 183.541 77.7232 184.236 81.2372C184.873 84.4602 185.328 88.0092 185.564 91.8322C185.8 95.6562 185.805 99.7542 185.536 104.032C185.137 110.347 184.215 117.062 182.77 124.004C181.325 130.947 179.363 138.112 177.127 145.36C176.671 146.838 176.209 148.283 175.744 149.731C175.562 150.301 175.374 150.853 175.19 151.418H165.951C166.417 149.966 166.872 148.548 167.334 147.075C167.782 145.643 168.217 144.211 168.662 142.76C170.846 135.645 172.817 128.722 174.388 122.123C175.96 115.525 177.122 109.248 177.818 103.34C178.292 99.3512 178.573 95.5302 178.648 91.9712C178.724 88.4112 178.596 85.1062 178.344 82.0672C177.8 75.4552 176.621 70.1612 175.771 66.4932C175.347 64.6592 175.02 63.2192 174.859 62.2052C174.697 61.1922 174.712 60.6142 174.969 60.4902C175.001 60.4752 175.041 60.4632 175.08 60.4632Z" fill="url(#pk_paint49_linear_1396_734)"/>
<path fill-rule="evenodd" clip-rule="evenodd" d="M304.83 66.0932C304.93 66.0732 305.065 66.1112 305.161 66.259C305.258 66.4066 305.304 66.691 305.327 66.8887C305.377 67.2383 305.381 67.6921 305.327 68.2146C305.221 69.2475 304.911 70.6357 304.465 72.2918C303.579 75.5835 302.085 80.1068 300.289 85.6168C296.742 96.4898 291.927 111.425 288.19 129.04C286.375 137.603 284.858 146.811 283.814 156.42H273.108C274.244 145.922 276.157 135.921 278.478 126.753C280.775 117.676 283.473 109.406 286.235 102.091C288.997 94.7767 291.812 88.4258 294.389 83.1968C297.01 77.8776 299.35 73.7553 301.151 70.8658C302.065 69.3961 302.814 68.2793 303.405 67.4848C303.707 67.0747 303.96 66.7815 304.167 66.5567C304.302 66.35 304.461 66.321 304.565 66.2584C304.669 66.1958 304.73 66.1133 304.83 66.0932Z" fill="url(#pk_paint50_linear_1396_734)"/>
<path fill-rule="evenodd" clip-rule="evenodd" d="M350.28 78.6332C350.843 78.8226 350.647 81.1081 349.92 85.0787C349.194 89.0492 347.946 94.7244 346.49 101.732C345.035 108.739 343.377 117.062 342.119 126.352C341.068 134.115 340.3 142.56 340.183 151.415H331.414C331.655 142.013 332.725 133.132 334.208 125.08C335.971 115.506 338.281 107.074 340.543 100.128C342.804 93.182 345.012 87.7407 346.739 84.0557C348.466 80.3702 349.717 78.4438 350.28 78.6332Z" fill="url(#pk_paint51_linear_1396_734)"/>
<path fill-rule="evenodd" clip-rule="evenodd" d="M129.529 77.4132C130.184 77.4132 130.798 79.2522 131.397 82.5124C131.996 85.7725 132.592 90.4672 133.175 96.2984C133.759 102.129 134.313 109.082 134.747 116.843C135.18 124.605 135.48 133.178 135.31 142.22C135.305 142.521 135.287 142.81 135.28 143.11C135.249 144.67 135.194 146.227 135.132 147.764H125.645C125.695 146.157 125.756 144.541 125.793 142.902C125.799 142.61 125.817 142.335 125.823 142.043C125.994 133.227 125.984 124.769 126.031 117.051C126.077 109.333 126.171 102.357 126.446 96.4756C126.72 90.5951 127.155 85.8336 127.691 82.5416C128.227 79.2497 128.874 77.4132 129.529 77.4132Z" fill="url(#pk_paint52_linear_1396_734)"/>
<path fill-rule="evenodd" clip-rule="evenodd" d="M194.82 83.7332C195.402 83.9134 195.356 85.8863 194.958 89.2934C194.56 92.7006 193.806 97.5497 193.022 103.539C192.238 109.53 191.445 116.675 190.809 124.646C190.248 131.669 189.825 139.356 189.509 147.413H180.656C181.021 139.058 181.705 131.052 182.704 123.761C183.82 115.609 185.303 108.332 186.908 102.322C188.514 96.3129 190.236 91.5684 191.666 88.3804C193.097 85.1925 194.238 83.553 194.82 83.7332Z" fill="url(#pk_paint53_linear_1396_734)"/>
<path fill-rule="evenodd" clip-rule="evenodd" d="M339.33 157.703C339.356 155.736 339.366 153.767 339.33 151.765C339.303 150.36 339.236 148.936 339.174 147.515C338.798 138.791 337.761 130.407 335.987 122.734C334.213 115.061 331.717 108.092 328.674 102.015C325.896 96.3752 322.673 91.5032 319.424 87.4842C316.175 83.4652 312.887 80.3062 309.987 77.8282C303.429 73.4542 299.674 70.4542 300.018 69.6092C300.382 68.7752 304.869 70.2062 312.643 73.5472C316.212 75.6322 320.29 78.6242 324.393 82.6722C328.496 86.7192 332.602 91.8512 336.174 97.9842C339.934 104.52 343.076 112.099 345.299 120.422C347.522 128.744 348.84 137.796 349.205 147.109C349.265 148.625 349.287 150.146 349.299 151.64C349.319 153.689 349.288 155.696 349.237 157.703H339.33Z" fill="url(#pk_paint54_linear_1396_734)"/>
<path fill-rule="evenodd" clip-rule="evenodd" d="M371.92 157.703C372.132 155.754 372.368 153.803 372.545 151.828C373.596 140.123 373.93 128.761 373.628 118.038C373.279 105.485 372.042 93.7935 370.379 83.3735C368.715 72.9535 366.641 63.8275 364.712 56.2505C362.784 48.6726 361.036 42.6384 359.962 38.4184C358.889 34.1976 358.484 31.7812 359.171 31.4605C359.858 31.1399 361.565 32.9451 363.92 36.7102C366.276 40.4753 369.296 46.2123 372.378 53.7092C375.461 61.2062 378.575 70.4832 381.128 81.2492C383.68 92.0152 385.64 104.262 386.419 117.497C387.08 128.779 386.934 140.755 385.836 153.037C385.696 154.607 385.545 156.151 385.378 157.704L371.92 157.703Z" fill="url(#pk_paint55_linear_1396_734)"/>
<path fill-rule="evenodd" clip-rule="evenodd" d="M400.33 157.703C403 149.465 405.76 141.618 408.299 134.265C411.034 126.343 413.506 118.953 415.518 112.171C416.691 108.209 417.717 104.467 418.549 100.983C419.381 97.4997 420.01 94.2779 420.486 91.327C420.953 88.4114 421.257 85.7626 421.455 83.452C421.654 81.1414 421.738 79.1764 421.799 77.5458C421.86 75.9152 421.918 74.6208 422.018 73.7333C422.117 72.8459 422.274 72.3576 422.549 72.2958C422.824 72.234 423.21 72.6073 423.643 73.4208C424.075 74.2343 424.565 75.5013 425.018 77.1708C425.471 78.8403 425.869 80.9172 426.143 83.3896C426.417 85.862 426.537 88.7081 426.455 91.8584C426.377 95.0422 426.115 98.5473 425.611 102.296C425.108 106.045 424.379 110.059 423.455 114.234C421.881 121.371 419.773 129.089 417.299 137.203C415.292 143.783 413.024 150.663 410.768 157.703L400.33 157.703Z" fill="url(#pk_paint56_linear_1396_734)"/>
<path fill-rule="evenodd" clip-rule="evenodd" d="M547.21 157.703C547.152 156.228 547.074 154.771 547.023 153.278C547.017 153.131 547.028 152.976 547.023 152.828C546.6 140.225 546.399 128.2 546.16 117.203C545.921 106.206 545.619 96.2392 545.185 87.8782C544.751 79.5179 544.19 72.7592 543.498 68.0782C542.805 63.3974 542.001 60.8033 541.173 60.8033C540.345 60.8033 539.553 63.3817 538.81 68.0407C538.067 72.6997 537.362 79.4287 536.71 87.7657C536.058 96.1024 535.465 106.058 535.098 117.128C534.73 128.198 534.597 140.399 535.023 153.24C535.028 153.39 535.018 153.539 535.023 153.69C535.068 155.042 535.152 156.363 535.21 157.702H547.21L547.21 157.703Z" fill="url(#pk_paint57_linear_1396_734)"/>
<path fill-rule="evenodd" clip-rule="evenodd" d="M515.8 157.703C515.547 151.394 515.009 145.341 514.179 139.798C513.174 133.081 511.761 127.104 510.192 122.227C508.623 117.35 506.923 113.566 505.51 111.062C504.096 108.557 502.996 107.325 502.474 107.537C501.952 107.75 502.056 109.391 502.525 112.142C502.995 114.894 503.796 118.764 504.583 123.59C505.371 128.416 506.129 134.192 506.667 140.672C507.104 145.934 507.381 151.682 507.568 157.703H515.8Z" fill="url(#pk_paint58_linear_1396_734)"/>
<path fill-rule="evenodd" clip-rule="evenodd" d="M461.48 56.3832C461.593 56.3606 461.745 56.4036 461.854 56.5704C461.964 56.7373 462.015 57.0585 462.042 57.2819C462.098 57.6768 462.103 58.1894 462.042 58.7797C461.921 59.9465 461.571 61.5147 461.068 63.3855C460.067 67.1041 458.379 72.2139 456.35 78.4385C452.343 90.7215 446.904 107.592 442.682 127.492C440.632 137.166 438.918 147.567 437.739 158.422H425.644C426.927 146.563 429.088 135.265 431.71 124.908C434.304 114.654 437.352 105.311 440.472 97.0495C443.592 88.787 446.773 81.6125 449.684 75.7055C452.645 69.6966 455.288 65.0395 457.323 61.7755C458.355 60.1153 459.202 58.8536 459.869 57.956C460.21 57.4926 460.497 57.1614 460.73 56.9075C460.882 56.6739 461.062 56.6412 461.18 56.5704C461.298 56.4997 461.367 56.4058 461.48 56.3832Z" fill="url(#pk_paint59_linear_1396_734)"/>
<path fill-rule="evenodd" clip-rule="evenodd" d="M483.46 76.2032C484.095 76.4172 483.874 78.999 483.054 83.4844C482.233 87.9698 480.823 94.3804 479.179 102.296C477.534 110.212 475.662 119.613 474.241 130.108C473.054 138.879 472.185 148.418 472.054 158.42H462.147C462.42 147.799 463.628 137.766 465.304 128.67C467.296 117.855 469.905 108.329 472.46 100.482C475.015 92.636 477.509 86.4894 479.46 82.3264C481.41 78.163 482.824 75.9874 483.46 76.2014L483.46 76.2032Z" fill="url(#pk_paint60_linear_1396_734)"/>
<path fill-rule="evenodd" clip-rule="evenodd" d="M339.33 157.703C339.356 155.736 339.366 153.767 339.33 151.765C339.303 150.36 339.236 148.936 339.174 147.515C338.798 138.791 337.761 130.407 335.987 122.734C334.213 115.061 331.717 108.092 328.674 102.015C325.896 96.3752 322.673 91.5032 319.424 87.4842C316.175 83.4652 312.887 80.3062 309.987 77.8282C303.429 73.4542 299.674 70.4542 300.018 69.6092C300.382 68.7752 304.869 70.2062 312.643 73.5472C316.212 75.6322 320.29 78.6242 324.393 82.6722C328.496 86.7192 332.602 91.8512 336.174 97.9842C339.934 104.52 343.076 112.099 345.299 120.422C347.522 128.744 348.84 137.796 349.205 147.109C349.265 148.625 349.287 150.146 349.299 151.64C349.319 153.689 349.288 155.696 349.237 157.703H339.33Z" fill="url(#pk_paint61_linear_1396_734)"/>
<path fill-rule="evenodd" clip-rule="evenodd" d="M371.92 157.703C372.132 155.754 372.368 153.803 372.545 151.828C373.596 140.123 373.93 128.761 373.628 118.038C373.279 105.485 372.042 93.7935 370.379 83.3735C368.715 72.9535 366.641 63.8275 364.712 56.2505C362.784 48.6726 361.036 42.6384 359.962 38.4184C358.889 34.1976 358.484 31.7812 359.171 31.4605C359.858 31.1399 361.565 32.9451 363.92 36.7102C366.276 40.4753 369.296 46.2123 372.378 53.7092C375.461 61.2062 378.575 70.4832 381.128 81.2492C383.68 92.0152 385.64 104.262 386.419 117.497C387.08 128.779 386.934 140.755 385.836 153.037C385.696 154.607 385.545 156.151 385.378 157.704L371.92 157.703Z" fill="url(#pk_paint62_linear_1396_734)"/>
<path fill-rule="evenodd" clip-rule="evenodd" d="M400.33 157.703C403 149.465 405.76 141.618 408.299 134.265C411.034 126.343 413.506 118.953 415.518 112.171C416.691 108.209 417.717 104.467 418.549 100.983C419.381 97.4997 420.01 94.2779 420.486 91.327C420.953 88.4114 421.257 85.7626 421.455 83.452C421.654 81.1414 421.738 79.1764 421.799 77.5458C421.86 75.9152 421.918 74.6208 422.018 73.7333C422.117 72.8459 422.274 72.3576 422.549 72.2958C422.824 72.234 423.21 72.6073 423.643 73.4208C424.075 74.2343 424.565 75.5013 425.018 77.1708C425.471 78.8403 425.869 80.9172 426.143 83.3896C426.417 85.862 426.537 88.7081 426.455 91.8584C426.377 95.0422 426.115 98.5473 425.611 102.296C425.108 106.045 424.379 110.059 423.455 114.234C421.881 121.371 419.773 129.089 417.299 137.203C415.292 143.783 413.024 150.663 410.768 157.703L400.33 157.703Z" fill="url(#pk_paint63_linear_1396_734)"/>
<path fill-rule="evenodd" clip-rule="evenodd" d="M547.21 157.703C547.152 156.228 547.074 154.771 547.023 153.278C547.017 153.131 547.028 152.976 547.023 152.828C546.6 140.225 546.399 128.2 546.16 117.203C545.921 106.206 545.619 96.2392 545.185 87.8782C544.751 79.5179 544.19 72.7592 543.498 68.0782C542.805 63.3974 542.001 60.8033 541.173 60.8033C540.345 60.8033 539.553 63.3817 538.81 68.0407C538.067 72.6997 537.362 79.4287 536.71 87.7657C536.058 96.1024 535.465 106.058 535.098 117.128C534.73 128.198 534.597 140.399 535.023 153.24C535.028 153.39 535.018 153.539 535.023 153.69C535.068 155.042 535.152 156.363 535.21 157.702H547.21L547.21 157.703Z" fill="url(#pk_paint64_linear_1396_734)"/>
<path fill-rule="evenodd" clip-rule="evenodd" d="M515.8 157.703C515.547 151.394 515.009 145.341 514.179 139.798C513.174 133.081 511.761 127.104 510.192 122.227C508.623 117.35 506.923 113.566 505.51 111.062C504.096 108.557 502.996 107.325 502.474 107.537C501.952 107.75 502.056 109.391 502.525 112.142C502.995 114.894 503.796 118.764 504.583 123.59C505.371 128.416 506.129 134.192 506.667 140.672C507.104 145.934 507.381 151.682 507.568 157.703H515.8Z" fill="url(#pk_paint65_linear_1396_734)"/>
<path fill-rule="evenodd" clip-rule="evenodd" d="M461.48 56.3832C461.593 56.3606 461.745 56.4036 461.854 56.5704C461.964 56.7373 462.015 57.0585 462.042 57.2819C462.098 57.6768 462.103 58.1894 462.042 58.7797C461.921 59.9465 461.571 61.5147 461.068 63.3855C460.067 67.1041 458.379 72.2139 456.35 78.4385C452.343 90.7215 446.904 107.592 442.682 127.492C440.632 137.166 438.918 147.567 437.739 158.422H425.644C426.927 146.563 429.088 135.265 431.71 124.908C434.304 114.654 437.352 105.311 440.472 97.0495C443.592 88.787 446.773 81.6125 449.684 75.7055C452.645 69.6966 455.288 65.0395 457.323 61.7755C458.355 60.1153 459.202 58.8536 459.869 57.956C460.21 57.4926 460.497 57.1614 460.73 56.9075C460.882 56.6739 461.062 56.6412 461.18 56.5704C461.298 56.4997 461.367 56.4058 461.48 56.3832Z" fill="url(#pk_paint66_linear_1396_734)"/>
<path fill-rule="evenodd" clip-rule="evenodd" d="M483.46 76.2032C484.095 76.4172 483.874 78.999 483.054 83.4844C482.233 87.9698 480.823 94.3804 479.179 102.296C477.534 110.212 475.662 119.613 474.241 130.108C473.054 138.879 472.185 148.418 472.054 158.42H462.147C462.42 147.799 463.628 137.766 465.304 128.67C467.296 117.855 469.905 108.329 472.46 100.482C475.015 92.636 477.509 86.4894 479.46 82.3264C481.41 78.163 482.824 75.9874 483.46 76.2014L483.46 76.2032Z" fill="url(#pk_paint67_linear_1396_734)"/>
<path fill-rule="evenodd" clip-rule="evenodd" d="M347.39 147.683C347.416 145.663 347.426 143.641 347.39 141.585C347.362 140.142 347.292 138.679 347.229 137.22C346.843 128.261 345.778 119.651 343.956 111.771C342.134 103.891 339.571 96.7352 336.446 90.4942C333.593 84.7012 330.284 79.6982 326.947 75.5712C323.61 71.4442 320.234 68.2002 317.255 65.6542C310.521 61.1622 306.664 58.0822 307.017 57.2142C307.391 56.3572 311.999 57.8272 319.983 61.2582C323.648 63.4002 327.836 66.4722 332.05 70.6292C336.263 74.7852 340.48 80.0562 344.148 86.3542C348.01 93.0662 351.236 100.849 353.519 109.396C355.802 117.943 357.156 127.239 357.531 136.803C357.592 138.361 357.615 139.922 357.627 141.457C357.647 143.56 357.616 145.621 357.563 147.683H347.39Z" fill="url(#pk_paint68_linear_1396_734)"/>
<path fill-rule="evenodd" clip-rule="evenodd" d="M377.67 147.683C377.933 145.404 378.226 143.122 378.446 140.813C379.751 127.124 380.165 113.836 379.791 101.296C379.356 86.6158 377.821 72.9408 375.756 60.7558C373.692 48.5698 371.116 37.8978 368.722 29.0348C366.329 20.1725 364.159 13.1158 362.826 8.1798C361.494 3.2435 360.991 0.417504 361.844 0.0425038C362.696 -0.332496 364.816 1.7788 367.74 6.182C370.663 10.5853 374.413 17.295 378.239 26.062C382.065 34.8296 385.932 45.68 389.1 58.27C392.268 70.86 394.701 85.184 395.668 100.662C396.489 113.856 396.307 127.863 394.944 142.226C394.77 144.061 394.584 145.868 394.375 147.683L377.67 147.683Z" fill="url(#pk_paint69_linear_1396_734)"/>
<path fill-rule="evenodd" clip-rule="evenodd" d="M410.04 147.683C412.782 139.222 415.617 131.164 418.224 123.614C421.033 115.478 423.571 107.889 425.637 100.925C426.842 96.8561 427.896 93.0135 428.75 89.4362C429.604 85.8588 430.25 82.5502 430.74 79.5196C431.219 76.5254 431.531 73.8051 431.734 71.4323C431.938 69.0594 432.025 67.0414 432.088 65.3668C432.15 63.6922 432.21 62.3629 432.312 61.4515C432.415 60.5401 432.576 60.0387 432.858 59.9752C433.14 59.9117 433.537 60.2951 433.981 61.1305C434.425 61.9659 434.928 63.2671 435.393 64.9816C435.858 66.6961 436.267 68.829 436.548 71.368C436.829 73.907 436.953 76.8299 436.869 80.065C436.789 83.3346 436.52 86.9343 436.003 90.784C435.485 94.6336 434.736 98.7557 433.788 103.043C432.171 110.372 430.007 118.298 427.466 126.631C425.405 133.388 423.075 140.454 420.759 147.684L410.04 147.683Z" fill="url(#pk_paint70_linear_1396_734)"/>
<path fill-rule="evenodd" clip-rule="evenodd" d="M536.33 147.683C536.27 146.169 536.191 144.672 536.137 143.139C536.131 142.988 536.142 142.829 536.137 142.677C535.703 129.734 535.497 117.386 535.252 106.092C535.006 94.7979 534.696 84.5619 534.25 75.9769C533.805 67.3912 533.229 60.4499 532.517 55.6429C531.806 50.8359 530.98 48.1718 530.13 48.1718C529.279 48.1718 528.466 50.8198 527.704 55.6044C526.941 60.389 526.217 67.2994 525.547 75.8604C524.877 84.4218 524.268 94.6454 523.891 106.014C523.514 117.382 523.376 129.913 523.814 143.1C523.819 143.255 523.809 143.408 523.814 143.563C523.86 144.952 523.947 146.308 524.007 147.683L536.33 147.683Z" fill="url(#pk_paint71_linear_1396_734)"/>
<path fill-rule="evenodd" clip-rule="evenodd" d="M504.07 147.683C503.81 141.204 503.258 134.988 502.406 129.295C501.373 122.397 499.922 116.259 498.311 111.25C496.699 106.242 494.954 102.356 493.502 99.7842C492.051 97.2122 490.92 95.9462 490.385 96.1652C489.849 96.3832 489.956 98.0682 490.438 100.894C490.919 103.72 491.742 107.695 492.551 112.65C493.36 117.606 494.138 123.538 494.691 130.193C495.14 135.596 495.424 141.5 495.616 147.683H504.07Z" fill="url(#pk_paint72_linear_1396_734)"/>
<path fill-rule="evenodd" clip-rule="evenodd" d="M470.86 63.9832C471.513 64.2029 471.286 66.8544 470.443 71.4607C469.6 76.067 468.152 82.6507 466.463 90.7807C464.774 98.9102 462.852 108.565 461.393 119.343C460.173 128.35 459.281 138.146 459.146 148.419H448.973C449.253 137.512 450.494 127.208 452.214 117.867C454.26 106.761 456.94 96.9767 459.564 88.9197C462.187 80.8618 464.749 74.5497 466.752 70.2737C468.756 65.9981 470.207 63.7635 470.86 63.9832Z" fill="url(#pk_paint73_linear_1396_734)"/>
<path fill-rule="evenodd" clip-rule="evenodd" d="M367.48 150.783C367.503 149.041 367.511 147.299 367.48 145.527C367.456 144.282 367.396 143.022 367.341 141.764C367.008 134.042 366.09 126.62 364.52 119.828C362.949 113.035 360.74 106.867 358.047 101.487C355.588 96.4942 352.735 92.1822 349.858 88.6242C346.982 85.0662 344.072 82.2703 341.504 80.0762C335.7 76.2042 332.375 73.5492 332.68 72.8012C333.002 72.0623 336.974 73.3292 343.856 76.2862C347.015 78.1322 350.625 80.7812 354.257 84.3642C357.889 87.9472 361.524 92.4902 364.686 97.9192C368.014 103.704 370.796 110.413 372.763 117.781C374.731 125.148 375.898 133.161 376.221 141.405C376.274 142.747 376.294 144.093 376.304 145.416C376.321 147.229 376.294 149.006 376.249 150.783H367.48Z" fill="url(#pk_paint74_linear_1396_734)"/>
<path fill-rule="evenodd" clip-rule="evenodd" d="M397.33 150.783C397.517 149.058 397.726 147.331 397.883 145.583C398.814 135.222 399.109 125.163 398.842 115.672C398.532 104.56 397.438 94.2098 395.965 84.9858C394.493 75.7622 392.656 67.6838 390.949 60.9758C389.242 54.2677 387.695 48.9268 386.745 45.1898C385.795 41.4535 385.436 39.3144 386.044 39.0306C386.652 38.7468 388.164 40.3448 390.248 43.6777C392.333 47.0106 395.007 52.0891 397.735 58.7257C400.464 65.3621 403.221 73.5747 405.481 83.1047C407.74 92.6345 409.475 103.477 410.165 115.192C410.75 125.179 410.62 135.781 409.648 146.652C409.524 148.041 409.391 149.408 409.243 150.783L397.33 150.783Z" fill="url(#pk_paint75_linear_1396_734)"/>
<path fill-rule="evenodd" clip-rule="evenodd" d="M421.48 150.783C423.844 143.49 426.287 136.544 428.534 130.036C430.955 123.023 433.143 116.481 434.924 110.478C435.963 106.971 436.871 103.658 437.607 100.575C438.344 97.4912 438.901 94.6393 439.322 92.0271C439.735 89.4462 440.004 87.1013 440.18 85.056C440.356 83.0106 440.431 81.2711 440.484 79.8277C440.538 78.3843 440.59 77.2384 440.678 76.4528C440.766 75.6672 440.905 75.235 441.148 75.1803C441.391 75.1256 441.733 75.4561 442.116 76.1762C442.499 76.8963 442.933 78.0179 443.334 79.4957C443.735 80.9736 444.087 82.8121 444.329 85.0006C444.572 87.1891 444.679 89.7087 444.606 92.4972C444.537 95.3156 444.305 98.4184 443.859 101.737C443.413 105.055 442.768 108.608 441.95 112.304C440.557 118.621 438.691 125.454 436.501 132.636C434.724 138.46 432.716 144.551 430.719 150.783L421.48 150.783Z" fill="url(#pk_paint76_linear_1396_734)"/>
<path fill-rule="evenodd" clip-rule="evenodd" d="M531.08 150.783C531.028 149.478 530.96 148.188 530.914 146.866C530.909 146.736 530.918 146.599 530.914 146.468C530.539 135.312 530.362 124.667 530.15 114.932C529.939 105.197 529.671 96.3739 529.287 88.9729C528.903 81.5722 528.407 75.5889 527.794 71.4459C527.18 67.3024 526.468 65.006 525.735 65.006C525.002 65.006 524.302 67.2885 523.644 71.4127C522.986 75.537 522.362 81.4937 521.785 88.8737C521.208 96.2535 520.683 105.066 520.358 114.866C520.032 124.665 519.914 135.466 520.291 146.833C520.295 146.966 520.287 147.098 520.291 147.231C520.331 148.428 520.406 149.597 520.457 150.783L531.08 150.783Z" fill="url(#pk_paint77_linear_1396_734)"/>
<path fill-rule="evenodd" clip-rule="evenodd" d="M503.28 150.783C503.056 145.198 502.58 139.84 501.846 134.933C500.956 128.987 499.705 123.696 498.316 119.379C496.927 115.061 495.422 111.712 494.171 109.495C492.92 107.278 491.946 106.187 491.484 106.375C491.022 106.564 491.114 108.016 491.529 110.452C491.945 112.887 492.654 116.314 493.351 120.586C494.049 124.858 494.719 129.971 495.196 135.707C495.583 140.364 495.827 145.453 495.993 150.783H503.28Z" fill="url(#pk_paint78_linear_1396_734)"/>
<path fill-rule="evenodd" clip-rule="evenodd" d="M536.04 61.0932C535.94 61.0732 535.805 61.1112 535.708 61.259C535.612 61.4066 535.566 61.691 535.543 61.8887C535.493 62.2383 535.489 62.6921 535.543 63.2146C535.649 64.2475 535.959 65.6357 536.405 67.2918C537.29 70.5835 538.785 75.1068 540.581 80.6168C544.128 91.4898 548.943 106.425 552.68 124.04C554.495 132.603 556.012 141.811 557.056 151.42H567.762C566.626 140.922 564.713 130.921 562.392 121.753C560.095 112.676 557.397 104.406 554.635 97.0908C551.873 89.7767 549.058 83.4258 546.481 78.1968C543.86 72.8776 541.52 68.7553 539.719 65.8658C538.805 64.3961 538.056 63.2793 537.465 62.4848C537.163 62.0747 536.91 61.7815 536.703 61.5567C536.568 61.35 536.409 61.321 536.305 61.2584C536.2 61.1958 536.14 61.1133 536.04 61.0932Z" fill="url(#pk_paint79_linear_1396_734)"/>
<path fill-rule="evenodd" clip-rule="evenodd" d="M474.65 78.6332C475.213 78.8226 475.017 81.1081 474.29 85.0787C473.564 89.0492 472.316 94.7244 470.86 101.732C469.405 108.739 467.747 117.062 466.49 126.352C465.439 134.115 464.67 142.56 464.553 151.415H455.784C456.025 142.013 457.095 133.132 458.578 125.08C460.342 115.506 462.651 107.074 464.913 100.128C467.174 93.182 469.383 87.7407 471.109 84.0557C472.836 80.3702 474.087 78.4438 474.65 78.6332Z" fill="url(#pk_paint80_linear_1396_734)"/>
<path fill-rule="evenodd" clip-rule="evenodd" d="M480.69 150.783C480.877 149.058 481.086 147.331 481.243 145.583C482.174 135.222 482.469 125.163 482.202 115.672C481.892 104.56 480.798 94.2098 479.325 84.9858C477.853 75.7622 476.016 67.6838 474.309 60.9758C472.602 54.2677 471.055 48.9268 470.105 45.1898C469.155 41.4535 468.796 39.3144 469.404 39.0306C470.012 38.7468 471.524 40.3448 473.609 43.6777C475.693 47.0106 478.367 52.0891 481.096 58.7257C483.824 65.3621 486.581 73.5747 488.841 83.1047C491.1 92.6345 492.835 103.477 493.525 115.192C494.11 125.179 493.98 135.781 493.008 146.652C492.884 148.041 492.751 149.408 492.603 150.783L480.69 150.783Z" fill="url(#pk_paint81_linear_1396_734)"/>
<path fill-rule="evenodd" clip-rule="evenodd" d="M516.15 60.4632C515.876 60.4592 515.432 60.8022 514.85 61.5142C514.186 62.3272 513.341 63.6202 512.416 65.3592C511.491 67.0982 510.491 69.2882 509.539 71.9432C508.587 74.5972 507.69 77.7232 506.994 81.2372C506.357 84.4602 505.902 88.0092 505.666 91.8322C505.43 95.6562 505.426 99.7542 505.694 104.032C506.094 110.347 507.015 117.062 508.46 124.004C509.905 130.947 511.867 138.112 514.103 145.36C514.559 146.838 515.021 148.283 515.486 149.731C515.669 150.301 515.856 150.853 516.04 151.418H525.279C524.814 149.966 524.359 148.548 523.896 147.075C523.449 145.643 523.013 144.211 522.568 142.76C520.384 135.645 518.413 128.722 516.842 122.123C515.271 115.525 514.109 109.248 513.412 103.34C512.938 99.3512 512.657 95.5302 512.582 91.9712C512.506 88.4112 512.635 85.1062 512.886 82.0672C513.43 75.4552 514.609 70.1612 515.459 66.4932C515.884 64.6592 516.21 63.2192 516.372 62.2052C516.533 61.1922 516.519 60.6142 516.261 60.4902C516.229 60.4752 516.19 60.4632 516.15 60.4632Z" fill="url(#pk_paint82_linear_1396_734)"/>
<path fill-rule="evenodd" clip-rule="evenodd" d="M496.41 83.7332C495.828 83.9134 495.874 85.8863 496.272 89.2934C496.67 92.7006 497.424 97.5497 498.208 103.539C498.992 109.53 499.785 116.675 500.421 124.646C500.982 131.669 501.405 139.356 501.721 147.413H510.574C510.209 139.058 509.525 131.052 508.526 123.761C507.41 115.609 505.927 108.332 504.322 102.322C502.716 96.3129 500.994 91.5684 499.564 88.3804C498.133 85.1925 496.992 83.553 496.41 83.7332Z" fill="url(#pk_paint83_linear_1396_734)"/>
<path d="M666.951 145.403H28.1306V158.414H666.951V145.403Z" fill="#2D5603"/>
<defs>
<linearGradient id="pk_paint0_linear_1396_734" x1="581.182" y1="116.671" x2="594.637" y2="119.212" gradientUnits="userSpaceOnUse">
<stop stop-color="#3F7F00"/>
<stop offset="1" stop-color="#68C405"/>
</linearGradient>
<linearGradient id="pk_paint1_linear_1396_734" x1="607.788" y1="125.4" x2="614.531" y2="126.209" gradientUnits="userSpaceOnUse">
<stop stop-color="#3F7F00"/>
<stop offset="1" stop-color="#68C405"/>
</linearGradient>
<linearGradient id="pk_paint2_linear_1396_734" x1="626.912" y1="129.19" x2="636.802" y2="131.159" gradientUnits="userSpaceOnUse">
<stop stop-color="#3F7F00"/>
<stop offset="1" stop-color="#68C405"/>
</linearGradient>
<linearGradient id="pk_paint3_linear_1396_734" x1="581.182" y1="116.671" x2="594.637" y2="119.212" gradientUnits="userSpaceOnUse">
<stop stop-color="#3F7F00"/>
<stop offset="1" stop-color="#68C405"/>
</linearGradient>
<linearGradient id="pk_paint4_linear_1396_734" x1="607.788" y1="125.4" x2="614.531" y2="126.209" gradientUnits="userSpaceOnUse">
<stop stop-color="#3F7F00"/>
<stop offset="1" stop-color="#68C405"/>
</linearGradient>
<linearGradient id="pk_paint5_linear_1396_734" x1="626.912" y1="129.19" x2="636.802" y2="131.159" gradientUnits="userSpaceOnUse">
<stop stop-color="#3F7F00"/>
<stop offset="1" stop-color="#68C405"/>
</linearGradient>
<linearGradient id="pk_paint6_linear_1396_734" x1="595.766" y1="105.545" x2="609.584" y2="108.155" gradientUnits="userSpaceOnUse">
<stop stop-color="#3F7F00"/>
<stop offset="1" stop-color="#68C405"/>
</linearGradient>
<linearGradient id="pk_paint7_linear_1396_734" x1="563.953" y1="105.84" x2="585.236" y2="112.438" gradientUnits="userSpaceOnUse">
<stop stop-color="#3F7F00"/>
<stop offset="1" stop-color="#68C405"/>
</linearGradient>
<linearGradient id="pk_paint8_linear_1396_734" x1="623.092" y1="114.502" x2="630.016" y2="115.332" gradientUnits="userSpaceOnUse">
<stop stop-color="#3F7F00"/>
<stop offset="1" stop-color="#68C405"/>
</linearGradient>
<linearGradient id="pk_paint9_linear_1396_734" x1="642.716" y1="118.401" x2="652.873" y2="120.422" gradientUnits="userSpaceOnUse">
<stop stop-color="#3F7F00"/>
<stop offset="1" stop-color="#68C405"/>
</linearGradient>
<linearGradient id="pk_paint10_linear_1396_734" x1="581.571" y1="114.468" x2="593.481" y2="116.717" gradientUnits="userSpaceOnUse">
<stop stop-color="#3F7F00"/>
<stop offset="1" stop-color="#68C405"/>
</linearGradient>
<linearGradient id="pk_paint11_linear_1396_734" x1="605.126" y1="122.184" x2="611.095" y2="122.899" gradientUnits="userSpaceOnUse">
<stop stop-color="#3F7F00"/>
<stop offset="1" stop-color="#68C405"/>
</linearGradient>
<linearGradient id="pk_paint12_linear_1396_734" x1="622.044" y1="125.538" x2="630.799" y2="127.28" gradientUnits="userSpaceOnUse">
<stop stop-color="#3F7F00"/>
<stop offset="1" stop-color="#68C405"/>
</linearGradient>
<linearGradient id="pk_paint13_linear_1396_734" x1="591.757" y1="119.723" x2="610.102" y2="125.41" gradientUnits="userSpaceOnUse">
<stop stop-color="#3F7F00"/>
<stop offset="1" stop-color="#68C405"/>
</linearGradient>
<linearGradient id="pk_paint14_linear_1396_734" x1="642.509" y1="121.842" x2="653.877" y2="124.444" gradientUnits="userSpaceOnUse">
<stop stop-color="#3F7F00"/>
<stop offset="1" stop-color="#68C405"/>
</linearGradient>
<linearGradient id="pk_paint15_linear_1396_734" x1="561.486" y1="119.184" x2="567.455" y2="119.899" gradientUnits="userSpaceOnUse">
<stop stop-color="#3F7F00"/>
<stop offset="1" stop-color="#68C405"/>
</linearGradient>
<linearGradient id="pk_paint16_linear_1396_734" x1="281.182" y1="116.671" x2="294.637" y2="119.212" gradientUnits="userSpaceOnUse">
<stop stop-color="#3F7F00"/>
<stop offset="1" stop-color="#68C405"/>
</linearGradient>
<linearGradient id="pk_paint17_linear_1396_734" x1="250.212" y1="116.967" x2="270.936" y2="123.392" gradientUnits="userSpaceOnUse">
<stop stop-color="#3F7F00"/>
<stop offset="1" stop-color="#68C405"/>
</linearGradient>
<linearGradient id="pk_paint18_linear_1396_734" x1="219.936" y1="125.013" x2="232.778" y2="127.952" gradientUnits="userSpaceOnUse">
<stop stop-color="#3F7F00"/>
<stop offset="1" stop-color="#68C405"/>
</linearGradient>
<linearGradient id="pk_paint19_linear_1396_734" x1="307.788" y1="125.4" x2="314.531" y2="126.209" gradientUnits="userSpaceOnUse">
<stop stop-color="#3F7F00"/>
<stop offset="1" stop-color="#68C405"/>
</linearGradient>
<linearGradient id="pk_paint20_linear_1396_734" x1="326.912" y1="129.19" x2="336.802" y2="131.159" gradientUnits="userSpaceOnUse">
<stop stop-color="#3F7F00"/>
<stop offset="1" stop-color="#68C405"/>
</linearGradient>
<linearGradient id="pk_paint21_linear_1396_734" x1="31.396" y1="111.47" x2="51.4638" y2="126.09" gradientUnits="userSpaceOnUse">
<stop stop-color="#488E02"/>
<stop offset="1" stop-color="#66C904"/>
</linearGradient>
<linearGradient id="pk_paint22_linear_1396_734" x1="76.6537" y1="91.6036" x2="92.7422" y2="96.2565" gradientUnits="userSpaceOnUse">
<stop stop-color="#488E02"/>
<stop offset="1" stop-color="#66C904"/>
</linearGradient>
<linearGradient id="pk_paint23_linear_1396_734" x1="116.984" y1="112.994" x2="131.033" y2="118.608" gradientUnits="userSpaceOnUse">
<stop stop-color="#488E02"/>
<stop offset="1" stop-color="#66C904"/>
</linearGradient>
<linearGradient id="pk_paint24_linear_1396_734" x1="151.949" y1="106.982" x2="159.495" y2="108.247" gradientUnits="userSpaceOnUse">
<stop stop-color="#488E02"/>
<stop offset="1" stop-color="#66C904"/>
</linearGradient>
<linearGradient id="pk_paint25_linear_1396_734" x1="281.182" y1="116.671" x2="294.637" y2="119.212" gradientUnits="userSpaceOnUse">
<stop stop-color="#3F7F00"/>
<stop offset="1" stop-color="#68C405"/>
</linearGradient>
<linearGradient id="pk_paint26_linear_1396_734" x1="250.212" y1="116.967" x2="270.936" y2="123.392" gradientUnits="userSpaceOnUse">
<stop stop-color="#3F7F00"/>
<stop offset="1" stop-color="#68C405"/>
</linearGradient>
<linearGradient id="pk_paint27_linear_1396_734" x1="219.936" y1="125.013" x2="232.778" y2="127.952" gradientUnits="userSpaceOnUse">
<stop stop-color="#3F7F00"/>
<stop offset="1" stop-color="#68C405"/>
</linearGradient>
<linearGradient id="pk_paint28_linear_1396_734" x1="307.788" y1="125.4" x2="314.531" y2="126.209" gradientUnits="userSpaceOnUse">
<stop stop-color="#3F7F00"/>
<stop offset="1" stop-color="#68C405"/>
</linearGradient>
<linearGradient id="pk_paint29_linear_1396_734" x1="326.912" y1="129.19" x2="336.802" y2="131.159" gradientUnits="userSpaceOnUse">
<stop stop-color="#3F7F00"/>
<stop offset="1" stop-color="#68C405"/>
</linearGradient>
<linearGradient id="pk_paint30_linear_1396_734" x1="39.2416" y1="100.203" x2="59.8504" y2="115.218" gradientUnits="userSpaceOnUse">
<stop stop-color="#488E02"/>
<stop offset="1" stop-color="#66C904"/>
</linearGradient>
<linearGradient id="pk_paint31_linear_1396_734" x1="85.7193" y1="79.8015" x2="102.242" y2="84.5798" gradientUnits="userSpaceOnUse">
<stop stop-color="#488E02"/>
<stop offset="1" stop-color="#66C904"/>
</linearGradient>
<linearGradient id="pk_paint32_linear_1396_734" x1="127.138" y1="101.77" x2="141.566" y2="107.535" gradientUnits="userSpaceOnUse">
<stop stop-color="#488E02"/>
<stop offset="1" stop-color="#66C904"/>
</linearGradient>
<linearGradient id="pk_paint33_linear_1396_734" x1="295.766" y1="105.545" x2="309.584" y2="108.155" gradientUnits="userSpaceOnUse">
<stop stop-color="#3F7F00"/>
<stop offset="1" stop-color="#68C405"/>
</linearGradient>
<linearGradient id="pk_paint34_linear_1396_734" x1="263.953" y1="105.84" x2="285.236" y2="112.438" gradientUnits="userSpaceOnUse">
<stop stop-color="#3F7F00"/>
<stop offset="1" stop-color="#68C405"/>
</linearGradient>
<linearGradient id="pk_paint35_linear_1396_734" x1="232.864" y1="114.111" x2="246.052" y2="117.129" gradientUnits="userSpaceOnUse">
<stop stop-color="#3F7F00"/>
<stop offset="1" stop-color="#68C405"/>
</linearGradient>
<linearGradient id="pk_paint36_linear_1396_734" x1="323.092" y1="114.502" x2="330.017" y2="115.332" gradientUnits="userSpaceOnUse">
<stop stop-color="#3F7F00"/>
<stop offset="1" stop-color="#68C405"/>
</linearGradient>
<linearGradient id="pk_paint37_linear_1396_734" x1="342.716" y1="118.401" x2="352.873" y2="120.422" gradientUnits="userSpaceOnUse">
<stop stop-color="#3F7F00"/>
<stop offset="1" stop-color="#68C405"/>
</linearGradient>
<linearGradient id="pk_paint38_linear_1396_734" x1="60.4534" y1="109.856" x2="78.2177" y2="122.799" gradientUnits="userSpaceOnUse">
<stop stop-color="#488E02"/>
<stop offset="1" stop-color="#66C904"/>
</linearGradient>
<linearGradient id="pk_paint39_linear_1396_734" x1="100.516" y1="92.2706" x2="114.757" y2="96.3894" gradientUnits="userSpaceOnUse">
<stop stop-color="#488E02"/>
<stop offset="1" stop-color="#66C904"/>
</linearGradient>
<linearGradient id="pk_paint40_linear_1396_734" x1="136.218" y1="111.207" x2="148.654" y2="116.176" gradientUnits="userSpaceOnUse">
<stop stop-color="#488E02"/>
<stop offset="1" stop-color="#66C904"/>
</linearGradient>
<linearGradient id="pk_paint41_linear_1396_734" x1="167.168" y1="105.884" x2="173.848" y2="107.004" gradientUnits="userSpaceOnUse">
<stop stop-color="#488E02"/>
<stop offset="1" stop-color="#66C904"/>
</linearGradient>
<linearGradient id="pk_paint42_linear_1396_734" x1="195.657" y1="127.527" x2="202.352" y2="129.908" gradientUnits="userSpaceOnUse">
<stop stop-color="#488E02"/>
<stop offset="1" stop-color="#66C904"/>
</linearGradient>
<linearGradient id="pk_paint43_linear_1396_734" x1="281.571" y1="114.468" x2="293.481" y2="116.717" gradientUnits="userSpaceOnUse">
<stop stop-color="#3F7F00"/>
<stop offset="1" stop-color="#68C405"/>
</linearGradient>
<linearGradient id="pk_paint44_linear_1396_734" x1="254.153" y1="114.723" x2="272.498" y2="120.41" gradientUnits="userSpaceOnUse">
<stop stop-color="#3F7F00"/>
<stop offset="1" stop-color="#68C405"/>
</linearGradient>
<linearGradient id="pk_paint45_linear_1396_734" x1="227.349" y1="121.842" x2="238.717" y2="124.444" gradientUnits="userSpaceOnUse">
<stop stop-color="#3F7F00"/>
<stop offset="1" stop-color="#68C405"/>
</linearGradient>
<linearGradient id="pk_paint46_linear_1396_734" x1="305.126" y1="122.184" x2="311.095" y2="122.899" gradientUnits="userSpaceOnUse">
<stop stop-color="#3F7F00"/>
<stop offset="1" stop-color="#68C405"/>
</linearGradient>
<linearGradient id="pk_paint47_linear_1396_734" x1="322.044" y1="125.538" x2="330.798" y2="127.28" gradientUnits="userSpaceOnUse">
<stop stop-color="#3F7F00"/>
<stop offset="1" stop-color="#68C405"/>
</linearGradient>
<linearGradient id="pk_paint48_linear_1396_734" x1="211.675" y1="105.371" x2="226.566" y2="108.235" gradientUnits="userSpaceOnUse">
<stop stop-color="#3F7F00"/>
<stop offset="1" stop-color="#68C405"/>
</linearGradient>
<linearGradient id="pk_paint49_linear_1396_734" x1="178.551" y1="103.809" x2="189.959" y2="107.048" gradientUnits="userSpaceOnUse">
<stop stop-color="#488E02"/>
<stop offset="1" stop-color="#66C904"/>
</linearGradient>
<linearGradient id="pk_paint50_linear_1396_734" x1="291.757" y1="119.723" x2="310.102" y2="125.41" gradientUnits="userSpaceOnUse">
<stop stop-color="#3F7F00"/>
<stop offset="1" stop-color="#68C405"/>
</linearGradient>
<linearGradient id="pk_paint51_linear_1396_734" x1="342.509" y1="121.842" x2="353.877" y2="124.444" gradientUnits="userSpaceOnUse">
<stop stop-color="#3F7F00"/>
<stop offset="1" stop-color="#68C405"/>
</linearGradient>
<linearGradient id="pk_paint52_linear_1396_734" x1="131.83" y1="110.939" x2="137.691" y2="111.996" gradientUnits="userSpaceOnUse">
<stop stop-color="#488E02"/>
<stop offset="1" stop-color="#66C904"/>
</linearGradient>
<linearGradient id="pk_paint53_linear_1396_734" x1="189.953" y1="114.073" x2="198.302" y2="116.571" gradientUnits="userSpaceOnUse">
<stop stop-color="#488E02"/>
<stop offset="1" stop-color="#66C904"/>
</linearGradient>
<linearGradient id="pk_paint54_linear_1396_734" x1="328.503" y1="121.821" x2="353.394" y2="133.884" gradientUnits="userSpaceOnUse">
<stop stop-color="#3F7F00"/>
<stop offset="1" stop-color="#68C405"/>
</linearGradient>
<linearGradient id="pk_paint55_linear_1396_734" x1="375.01" y1="106.403" x2="391.831" y2="109.639" gradientUnits="userSpaceOnUse">
<stop stop-color="#3F7F00"/>
<stop offset="1" stop-color="#68C405"/>
</linearGradient>
<linearGradient id="pk_paint56_linear_1396_734" x1="415.448" y1="123.004" x2="430.674" y2="127.051" gradientUnits="userSpaceOnUse">
<stop stop-color="#3F7F00"/>
<stop offset="1" stop-color="#68C405"/>
</linearGradient>
<linearGradient id="pk_paint57_linear_1396_734" x1="541.957" y1="118.338" x2="549.624" y2="119.193" gradientUnits="userSpaceOnUse">
<stop stop-color="#3F7F00"/>
<stop offset="1" stop-color="#68C405"/>
</linearGradient>
<linearGradient id="pk_paint58_linear_1396_734" x1="510.031" y1="137.314" x2="518.104" y2="139.223" gradientUnits="userSpaceOnUse">
<stop stop-color="#3F7F00"/>
<stop offset="1" stop-color="#68C405"/>
</linearGradient>
<linearGradient id="pk_paint59_linear_1396_734" x1="446.712" y1="116.967" x2="467.436" y2="123.392" gradientUnits="userSpaceOnUse">
<stop stop-color="#3F7F00"/>
<stop offset="1" stop-color="#68C405"/>
</linearGradient>
<linearGradient id="pk_paint60_linear_1396_734" x1="474.681" y1="125.013" x2="487.523" y2="127.952" gradientUnits="userSpaceOnUse">
<stop stop-color="#3F7F00"/>
<stop offset="1" stop-color="#68C405"/>
</linearGradient>
<linearGradient id="pk_paint61_linear_1396_734" x1="328.503" y1="121.821" x2="353.394" y2="133.884" gradientUnits="userSpaceOnUse">
<stop stop-color="#3F7F00"/>
<stop offset="1" stop-color="#68C405"/>
</linearGradient>
<linearGradient id="pk_paint62_linear_1396_734" x1="375.01" y1="106.403" x2="391.831" y2="109.639" gradientUnits="userSpaceOnUse">
<stop stop-color="#3F7F00"/>
<stop offset="1" stop-color="#68C405"/>
</linearGradient>
<linearGradient id="pk_paint63_linear_1396_734" x1="415.448" y1="123.004" x2="430.674" y2="127.051" gradientUnits="userSpaceOnUse">
<stop stop-color="#3F7F00"/>
<stop offset="1" stop-color="#68C405"/>
</linearGradient>
<linearGradient id="pk_paint64_linear_1396_734" x1="541.957" y1="118.338" x2="549.624" y2="119.193" gradientUnits="userSpaceOnUse">
<stop stop-color="#3F7F00"/>
<stop offset="1" stop-color="#68C405"/>
</linearGradient>
<linearGradient id="pk_paint65_linear_1396_734" x1="510.031" y1="137.314" x2="518.104" y2="139.223" gradientUnits="userSpaceOnUse">
<stop stop-color="#3F7F00"/>
<stop offset="1" stop-color="#68C405"/>
</linearGradient>
<linearGradient id="pk_paint66_linear_1396_734" x1="446.712" y1="116.967" x2="467.436" y2="123.392" gradientUnits="userSpaceOnUse">
<stop stop-color="#3F7F00"/>
<stop offset="1" stop-color="#68C405"/>
</linearGradient>
<linearGradient id="pk_paint67_linear_1396_734" x1="474.681" y1="125.013" x2="487.523" y2="127.952" gradientUnits="userSpaceOnUse">
<stop stop-color="#3F7F00"/>
<stop offset="1" stop-color="#68C405"/>
</linearGradient>
<linearGradient id="pk_paint68_linear_1396_734" x1="336.27" y1="110.833" x2="361.832" y2="123.221" gradientUnits="userSpaceOnUse">
<stop stop-color="#3F7F00"/>
<stop offset="1" stop-color="#68C405"/>
</linearGradient>
<linearGradient id="pk_paint69_linear_1396_734" x1="381.505" y1="87.6869" x2="402.293" y2="91.9316" gradientUnits="userSpaceOnUse">
<stop stop-color="#3F7F00"/>
<stop offset="1" stop-color="#68C405"/>
</linearGradient>
<linearGradient id="pk_paint70_linear_1396_734" x1="425.565" y1="112.05" x2="441.201" y2="116.205" gradientUnits="userSpaceOnUse">
<stop stop-color="#3F7F00"/>
<stop offset="1" stop-color="#68C405"/>
</linearGradient>
<linearGradient id="pk_paint71_linear_1396_734" x1="530.935" y1="107.257" x2="538.809" y2="108.135" gradientUnits="userSpaceOnUse">
<stop stop-color="#3F7F00"/>
<stop offset="1" stop-color="#68C405"/>
</linearGradient>
<linearGradient id="pk_paint72_linear_1396_734" x1="498.146" y1="126.744" x2="506.436" y2="128.705" gradientUnits="userSpaceOnUse">
<stop stop-color="#3F7F00"/>
<stop offset="1" stop-color="#68C405"/>
</linearGradient>
<linearGradient id="pk_paint73_linear_1396_734" x1="461.845" y1="114.111" x2="475.033" y2="117.129" gradientUnits="userSpaceOnUse">
<stop stop-color="#3F7F00"/>
<stop offset="1" stop-color="#68C405"/>
</linearGradient>
<linearGradient id="pk_paint74_linear_1396_734" x1="357.895" y1="119.019" x2="379.929" y2="129.697" gradientUnits="userSpaceOnUse">
<stop stop-color="#3F7F00"/>
<stop offset="1" stop-color="#68C405"/>
</linearGradient>
<linearGradient id="pk_paint75_linear_1396_734" x1="400.065" y1="105.371" x2="414.956" y2="108.235" gradientUnits="userSpaceOnUse">
<stop stop-color="#3F7F00"/>
<stop offset="1" stop-color="#68C405"/>
</linearGradient>
<linearGradient id="pk_paint76_linear_1396_734" x1="434.862" y1="120.067" x2="448.34" y2="123.649" gradientUnits="userSpaceOnUse">
<stop stop-color="#3F7F00"/>
<stop offset="1" stop-color="#68C405"/>
</linearGradient>
<linearGradient id="pk_paint77_linear_1396_734" x1="526.429" y1="115.936" x2="533.216" y2="116.693" gradientUnits="userSpaceOnUse">
<stop stop-color="#3F7F00"/>
<stop offset="1" stop-color="#68C405"/>
</linearGradient>
<linearGradient id="pk_paint78_linear_1396_734" x1="498.174" y1="132.734" x2="505.319" y2="134.424" gradientUnits="userSpaceOnUse">
<stop stop-color="#3F7F00"/>
<stop offset="1" stop-color="#68C405"/>
</linearGradient>
<linearGradient id="pk_paint79_linear_1396_734" x1="554.153" y1="114.723" x2="572.498" y2="120.41" gradientUnits="userSpaceOnUse">
<stop stop-color="#3F7F00"/>
<stop offset="1" stop-color="#68C405"/>
</linearGradient>
<linearGradient id="pk_paint80_linear_1396_734" x1="466.879" y1="121.842" x2="478.247" y2="124.444" gradientUnits="userSpaceOnUse">
<stop stop-color="#3F7F00"/>
<stop offset="1" stop-color="#68C405"/>
</linearGradient>
<linearGradient id="pk_paint81_linear_1396_734" x1="483.425" y1="105.371" x2="498.316" y2="108.235" gradientUnits="userSpaceOnUse">
<stop stop-color="#3F7F00"/>
<stop offset="1" stop-color="#68C405"/>
</linearGradient>
<linearGradient id="pk_paint82_linear_1396_734" x1="516.931" y1="114.468" x2="528.841" y2="116.717" gradientUnits="userSpaceOnUse">
<stop stop-color="#3F7F00"/>
<stop offset="1" stop-color="#68C405"/>
</linearGradient>
<linearGradient id="pk_paint83_linear_1396_734" x1="504.414" y1="121.538" x2="513.169" y2="123.28" gradientUnits="userSpaceOnUse">
<stop stop-color="#3F7F00"/>
<stop offset="1" stop-color="#68C405"/>
</linearGradient>
</defs>
</svg>