<svg width="345" height="750" viewBox="0 0 345 750" fill="none" xmlns="http://www.w3.org/2000/svg" aria-hidden="true">
  <defs>
    <radialGradient id="wlNebula" cx="0" cy="0" r="1" gradientUnits="userSpaceOnUse" gradientTransform="translate(95 180) rotate(35) scale(220 280)">
      <stop stop-color="#2A2858" stop-opacity="0.55"/>
      <stop offset="1" stop-color="#0B0C18" stop-opacity="0"/>
    </radialGradient>
    <radialGradient id="wlNebula2" cx="0" cy="0" r="1" gradientUnits="userSpaceOnUse" gradientTransform="translate(280 520) rotate(-20) scale(180 200)">
      <stop stop-color="#1E3A5F" stop-opacity="0.35"/>
      <stop offset="1" stop-color="#0B0C18" stop-opacity="0"/>
    </radialGradient>
    <linearGradient id="wlBase" x1="172" y1="0" x2="172" y2="750" gradientUnits="userSpaceOnUse">
      <stop stop-color="#12131F"/>
      <stop offset="0.45" stop-color="#0B0C18"/>
      <stop offset="1" stop-color="#06070F"/>
    </linearGradient>
  </defs>
  <rect width="345" height="750" fill="url(#wlBase)"/>
  <rect width="345" height="750" fill="url(#wlNebula)"/>
  <rect width="345" height="750" fill="url(#wlNebula2)"/>
  <circle cx="28" cy="42" r="1.1" fill="#FFFFFF" opacity="0.85"/>
  <circle cx="72" cy="118" r="0.75" fill="#E8E8F5" opacity="0.6"/>
  <circle cx="118" cy="56" r="1.3" fill="#FFFFFF" opacity="0.9"/>
  <circle cx="165" cy="145" r="0.9" fill="#D0D0E0" opacity="0.55"/>
  <circle cx="210" cy="88" r="1" fill="#F5F5FF" opacity="0.75"/>
  <circle cx="255" cy="210" r="0.7" fill="#C8C8D8" opacity="0.5"/>
  <circle cx="298" cy="62" r="1.2" fill="#FFFFFF" opacity="0.8"/>
  <circle cx="318" cy="168" r="0.85" fill="#E0E0EC" opacity="0.65"/>
  <circle cx="42" cy="248" r="0.8" fill="#B8B8CC" opacity="0.45"/>
  <circle cx="95" cy="310" r="1.15" fill="#FFFFFF" opacity="0.7"/>
  <circle cx="152" cy="265" r="0.65" fill="#A8A8BC" opacity="0.4"/>
  <circle cx="188" cy="380" r="0.9" fill="#E8E8F8" opacity="0.6"/>
  <circle cx="235" cy="320" r="1.05" fill="#FFFFFF" opacity="0.75"/>
  <circle cx="278" cy="410" r="0.75" fill="#D8D8E8" opacity="0.5"/>
  <circle cx="312" cy="290" r="0.95" fill="#F0F0FA" opacity="0.68"/>
  <circle cx="58" cy="445" r="0.7" fill="#CCCCDC" opacity="0.42"/>
  <circle cx="128" cy="498" r="1.2" fill="#FFFFFF" opacity="0.82"/>
  <circle cx="175" cy="552" r="0.8" fill="#E0E0F0" opacity="0.58"/>
  <circle cx="222" cy="475" r="0.65" fill="#B0B0C4" opacity="0.38"/>
  <circle cx="268" cy="585" r="1.1" fill="#FFFFFF" opacity="0.72"/>
  <circle cx="305" cy="520" r="0.85" fill="#DCDCEC" opacity="0.55"/>
  <circle cx="88" cy="620" r="0.9" fill="#F8F8FF" opacity="0.65"/>
  <circle cx="145" cy="680" r="0.75" fill="#C0C0D4" opacity="0.48"/>
  <circle cx="198" cy="640" r="1" fill="#FFFFFF" opacity="0.78"/>
  <circle cx="252" cy="705" r="0.7" fill="#E8E8F5" opacity="0.52"/>
  <circle cx="32" cy="165" r="0.55" fill="#9A9AB0" opacity="0.35"/>
  <circle cx="325" cy="95" r="0.6" fill="#AEAEC4" opacity="0.4"/>
  <circle cx="265" cy="135" r="0.5" fill="#8888A0" opacity="0.3"/>
</svg>
